<svg viewBox="0 0 40 40" fill="none" xmlns="http://www.w3.org/2000/svg">
  <!-- Olive branch v5: thinner strokes, actual leaf outlines, more botanical -->
  <g stroke="#e8922e" stroke-width="1.4" stroke-linecap="round" stroke-linejoin="round" fill="none">
    <!-- Main curved stem - graceful S-curve from bottom-left to top-right -->
    <path d="M10 35 C12 30, 14 26, 17 22 C20 18, 24 13, 30 6"/>
    
    <!-- Left-side leaves (pointed ellipses, alternating) -->
    <!-- Leaf 1 - bottom left -->
    <path d="M14 28 C11 26, 8 23, 9 20 C10 23, 12 25.5, 14 28Z"/>
    <!-- Leaf 3 - mid left -->
    <path d="M19 20 C15.5 18.5, 12.5 15.5, 13.5 12.5 C14.5 15, 17 17.5, 19 20Z"/>
    <!-- Leaf 5 - upper left -->
    <path d="M24 13 C21 11.5, 18.5 9, 19.5 6.5 C20.5 8.5, 22.5 11, 24 13Z"/>
    
    <!-- Right-side leaves (pointed ellipses, alternating) -->
    <!-- Leaf 2 - bottom right -->
    <path d="M16 25 C19.5 23.5, 23 21.5, 24 18.5 C22.5 21, 19.5 23, 16 25Z"/>
    <!-- Leaf 4 - mid right -->
    <path d="M21.5 17 C25 15.5, 28 13, 28.5 10 C27.5 12.5, 25 14.5, 21.5 17Z"/>
    <!-- Leaf 6 - upper right, small -->
    <path d="M27 9 C29 8, 31.5 6.5, 31.5 4.5 C30.5 6, 29 7.5, 27 9Z"/>
  </g>
</svg>
