<?xml version="1.0" encoding="utf-8" ?><svg xmlns="http://www.w3.org/2000/svg" xmlns:xlink="http://www.w3.org/1999/xlink" width="1024" height="1024" viewBox="0 0 1024 1024"><path fill="#2A2D36" d="M613.277 246.156C622.51 226.909 633.07 214.064 636.744 192.414C638.405 182.627 644.411 170.107 648.378 160.893C677.645 106.748 743.635 67.183 803.053 58.1318C777.403 76.1161 770.351 98.7718 757.869 125.228C746.399 149.54 724.79 172.497 701.604 185.771C682.058 196.85 658.513 202.414 637.313 210.86C633.659 217.747 629.954 224.607 626.196 231.438C624.179 235.083 620.674 240.99 619.149 244.56C622.598 244.528 626.246 244.17 629.663 243.672C650.136 240.688 669.632 239.367 690.3 238.617C701.967 226.356 714.683 218.443 729.36 210.262C739.55 191.485 763.917 177.754 783.499 169.635C836.838 147.521 895.626 155.204 949.104 172.529C952.517 173.635 956.123 174.779 959.387 176.151C935.306 180.571 923.378 183.426 902.277 195.747C871.744 213.574 842.11 230.308 805.417 227.372C779.661 225.936 757.17 218.001 731.413 214C718.704 220.708 706.779 228.806 695.856 238.144C703.474 238.284 711.132 238.046 718.694 238.282C729.544 238.697 740.38 239.429 751.187 240.477C753.048 240.639 759.87 241.116 761.062 241.622C741.252 241.026 720.316 243.984 700.538 245.465C684.032 246.701 667.576 248.208 651.189 250.555C643.195 251.7 632.188 252.979 624.714 255.852C628.657 257.221 653.026 260.651 658.739 261.312C673.008 262.962 688.272 266.13 702.194 267.893C727.452 252.527 782.031 253.28 810.767 260.677C855.592 272.215 885.66 293.055 919.951 322.183C888.544 316.063 860.458 325.656 830.166 329.498C792.506 334.274 759.802 319.466 731.611 295.93C722.695 288.742 712.919 278.892 704.343 272.316C672.353 268.576 638.349 259.191 605.799 259.442C599.843 259.487 585.025 263.6 579.512 265.989C588.535 269.688 598.159 272.754 607.329 276.191C613.096 278.352 622.301 283.901 627.692 285.08C639.736 287.715 649.744 289.927 661.373 294.379C727.921 319.853 766.727 387.792 784.627 453.425C767.022 437.774 759.6 436.555 737.809 427.72C705.568 414.648 677.224 398.266 659.398 367.067C650.409 351.335 645.553 339.062 640.387 321.497C637.92 313.106 634.098 298.926 630 291.441C613.562 283.152 588.853 272.337 570.439 268.352C568.965 268.033 563.417 269.863 561.376 270.246C569.817 279.383 573.385 283.646 580.258 294.266C600.652 294.392 616.33 315.193 616.273 334.515C616.242 345.187 609.303 355.699 598.058 354.451C579.853 352.431 565.567 330.463 567.497 312.899C568.33 305.322 570.516 299.93 576.775 295.806C573.216 289.864 561.493 276.573 556.429 271.692C533.669 278.426 509.825 289.051 488.234 298.92C481.179 302.145 463.613 310.466 457.695 315.089C482.671 319.683 501.439 328.443 522.263 342.636C524.978 343.861 529.005 343.564 531.807 344.311C608.411 364.717 651.955 438.128 666.178 511.779C668.074 521.599 668.901 531.51 670.705 541.102C651.764 509.986 619.789 499.949 591.89 479.624C574.273 466.789 561.141 449.113 550.277 430.63C535.629 405.916 531.869 377.147 522.928 350.384C522.847 350.185 522.767 349.986 522.686 349.788C505.71 334.757 474.107 319.163 451.874 318.871C455.602 325.518 463.526 339.543 467.813 345.537C502.973 341.632 519.177 400.521 487.993 405.345C466.099 408.733 440.42 366.316 464.097 346.55C459.12 338.754 452.699 327.028 447.389 320.277C411.141 341.802 375.856 371.663 345.326 400.588C341.61 404.109 329.443 415.114 327.625 418.778L327.884 419.771C332.714 419.558 346.705 415.1 354.031 414.291C359.838 413.62 365.691 413.456 371.526 413.802C374.925 413.985 381.971 414.679 385.111 414.398C389.617 413.994 395.761 412.577 400.415 411.737C406.292 410.702 412.233 410.078 418.196 409.869C458.094 408.236 492.902 424.672 522.303 450.652C556.194 480.599 576.697 516.353 591.515 559.072C560.468 535.825 531.152 535.632 496.701 522.557C460.602 508.856 426.846 474.796 404.231 444.397C398.679 436.934 392.536 427.423 386.445 420.83C370.413 416.614 353.625 417.439 337.689 421.792C345.22 425.927 352.39 432.2 359.186 437.596C378.385 431.577 393.196 448.884 398.84 465.824C405.881 486.959 390.482 506.417 368.585 493.217C358.672 487.241 352.349 474.17 349.985 463.323C348.154 454.204 349.08 447.174 355.193 439.947C348.684 433.702 340.768 427.991 332.401 424.52C311.716 431.281 305.884 440.827 292.672 456.963C260.507 496.394 232.852 539.297 210.22 584.873C201.375 602.304 194.702 617.783 187.009 635.745C160.023 698.756 138.203 767.002 127.614 834.796C125.379 849.106 122.506 868.203 122.787 882.618L123.583 883.437C124.659 878.456 125.499 871.218 126.512 865.813C129.14 852.126 132.03 838.49 135.181 824.914C144.868 784.763 156.537 745.115 170.144 706.118C179.237 680.763 189.235 656.745 199.617 631.962C208.935 609.136 219.156 586.689 230.257 564.674C247.413 530.176 265.964 494.491 309.546 491.751C319.204 491.144 326.615 491.787 335.639 495.647C347.483 500.656 356.873 510.133 361.775 522.021C351.326 512.91 348.966 503.05 333.812 498.016C294.102 484.825 261.075 512.422 244.034 545.766C226.97 579.154 213.445 611.51 199.759 645.61L200.934 646.827C210.63 631.554 220.624 616.259 230.45 601.204C252.347 567.656 278.853 539.721 319.682 531.124C324.823 530.042 330.112 529.891 335.285 529.019C341.508 527.329 346.707 524.21 353.831 522.854C399.74 514.109 440.94 523.094 480.083 548.074C504.538 563.806 526.952 582.505 546.813 603.745C555.155 612.541 562.97 622.069 571.302 630.766C564.111 629.199 554.691 627.041 547.496 626.525C535.943 625.697 522.821 625.902 511.248 625.892C465.612 625.852 431.053 619.258 395.28 588.916C381.211 576.982 370.491 565.701 358.382 551.543C355.652 548.351 346.461 536.532 343.981 534.5C327.837 533.84 311.772 537.095 297.157 543.985C295.184 544.908 290.084 546.755 289.835 548.76C292.858 549.655 298.003 548.899 301.312 549.211C313.891 550.396 321.527 555.639 330.525 563.525C353.678 558.95 371.008 579.807 374.833 600.816C376.48 609.862 375.446 619.389 369.861 627.318C349.61 651.297 319.755 617.27 318.332 595.653C317.658 585.411 317.518 576.613 323.1 569.122C324.065 567.849 325.102 566.633 326.206 565.478C306.077 545.414 277.316 551.59 259.477 571.271C248.078 583.846 238.341 598.043 228.82 612.065C213.655 634.496 200.401 654.336 189.055 678.973C198.594 674.77 205.659 673.261 215.188 670.044C223.668 667.182 233.4 658.057 242.415 655.089C297.051 632.265 342.889 643.281 395.783 663.662C419.597 672.838 442.133 682.866 467.123 688.531C473.543 689.987 480.04 692.198 486.646 692.771C478.066 697.926 465.874 703.968 456.888 708.322C413.072 729.551 367.811 740.085 319.834 727.481C290.655 719.815 273.765 708.552 249.138 691.632C241.574 686.435 229.323 678.301 221.192 674.319C209.187 676.092 194.069 681.095 183.256 686.822C173.758 711.324 165.2 736.179 157.602 761.335C155.02 769.837 151.133 781.6 149.403 790.134C164.304 785.872 168.233 782.809 180.841 774.72C203.735 760.03 237.196 746.104 264.549 746.563C300.665 747.169 338.767 762.804 370.348 779.389C384.94 787.292 393.34 793.949 408.797 801.247C398.169 801.885 381.613 803.678 371.707 806.523C335.53 816.912 309.721 834.907 269.878 829.426C253.241 827.137 240.262 823.064 224.271 816.078C207.531 808.765 186.917 793.025 169.064 790.048C164.332 789.259 152.501 794.691 147.842 796.522C136.329 837.033 124.176 895.17 127.1 937.197C127.583 944.147 129.275 959.611 122.022 963.656C120.606 964.445 119.081 964.445 117.591 963.904C112.239 961.958 108.8 955.024 106.744 950.061C101.865 938.279 100.253 926.049 99.3009 913.446C96.0276 870.108 105.079 828.107 114.922 786.196C105.17 776.273 102.117 762.73 96.6572 750.638C93.1794 742.935 87.3838 735.422 83.6206 727.127C43.7848 639.312 80.5192 529.528 121.589 448.814C121.01 463.302 120.215 481.31 122.284 495.494C124.694 512.012 129.596 531.541 133.334 547.857C145.193 599.623 142.697 647.4 123.083 696.837C119.971 704.681 117.294 712.789 113.777 720.765C109.774 729.845 104.566 738.166 100.442 747.063C103.598 760.088 108.842 771.501 115.567 783.031C133.081 720.33 155.996 659.265 184.056 600.521C176.729 585.785 174.577 571.933 172.504 556.059C172.291 554.429 168.191 548.736 167.152 546.593C119.768 448.957 168.907 342.923 217.727 254.752C212.975 281.604 214.951 320.541 222.139 347.573C235.121 396.393 235.674 436.85 216.154 484.197C204.668 512.056 192.795 529.957 178.432 555.788C178.697 568.405 182.015 582.158 186.627 593.883C192.346 584.247 195.719 576.052 200.815 566.5C213.828 542.281 228.117 518.771 243.621 496.066C247.185 490.926 252.721 482.467 256.626 478.011C251.836 464.927 249.787 450.997 250.606 437.087C250.801 433.157 251.881 427.156 251.776 423.773C251.662 420.095 250.881 414.546 250.504 410.726C249.954 405.027 249.651 399.307 249.596 393.582C248.081 306.211 314.33 223.763 372.343 164.915C362.982 182.624 356.581 213.439 356.145 233.478C355.065 283.164 349.939 335.512 314.78 374.001C297.968 392.405 275.046 407.6 256.203 424.385C253.465 439.546 254.621 460.161 258.955 475.077C280.201 445.359 304.279 417.77 330.85 392.699C343.367 380.938 356.127 370.834 368.502 359.517C369.144 339.602 374.244 326.906 381.64 308.98C380.274 305.11 379.571 298.329 379.191 294.091C371.483 208.002 445.899 133.582 508.457 84.8406C496.689 104.04 489.021 123.754 486.257 146.277C484.759 158.491 484.037 170.706 481.839 182.871C473.71 227.85 446.258 267.842 409.586 294.62C402.358 299.897 391.711 306.105 385.496 312.723C379.444 322.039 373.255 345.914 371.787 356.879C396.989 337.001 421.217 319.897 449.443 304.559C460.106 298.765 471.018 293.21 481.586 287.326C486.416 273.445 492.285 260.643 499.59 247.927C500.906 245.636 501.918 232.037 502.402 228.501C503.891 217.065 506.653 205.832 510.637 195.01C526.388 151.903 572.73 115.438 610.723 91.8711C623.487 83.9532 639.241 76.5727 652.595 69.4519C648.281 74.9876 640.918 83.4731 637.856 89.2688C617.078 128.587 621.384 158.962 591.419 195.618C583.307 205.703 573.773 214.555 563.114 221.897C550.177 230.681 534.454 237.648 520.367 244.391C514.946 246.985 507.458 249.37 502.37 252.217C498.082 259.084 489.743 277.134 487.127 285.026C496.79 281.688 507.006 276.863 516.866 273.213C548.624 261.458 579.747 251.286 613.277 246.156ZM459.193 692.462L461.045 689.778C458.287 688.679 452.876 687.256 449.807 686.246C440.854 683.298 431.896 680.651 423.042 677.371C406.73 671.272 390.248 665.64 373.615 660.482C326.33 645.892 292.006 642.992 244.177 661.622C240.905 663.027 237.39 664.465 234.18 665.955C240.879 665.041 245.564 664.409 252.365 664.28C269.834 664.882 283.127 665.838 300.213 668.867C354.489 678.486 403.437 698.385 459.193 692.462ZM163.942 504.573C165.374 515.556 168.369 527.013 170.253 537.997C170.485 539.07 170.598 539.283 171.036 540.301L171.798 539.797C173.893 535.02 174.11 514.621 174.676 507.737C176.022 490.043 177.627 472.37 179.489 454.723C182.987 422.112 188.402 388.629 193.25 356.187C195.04 344.208 199.129 324.938 199.731 313.963C200.727 310.094 201.453 305.601 202.188 301.632C201.164 303.708 200.624 305.144 199.814 307.325C199.037 309.346 197.953 311.573 197.957 313.663C194.702 318.128 188.288 337.653 185.882 343.785C173.414 375.551 164.938 406.703 161.885 440.714C159.682 465.256 160.808 480.271 163.942 504.573ZM360.85 528.386C361.265 528.777 401.837 537.973 416.293 543.941C445.694 556.077 489.503 580.33 517.685 597.886C526.079 603.115 542.519 611.333 548.09 615.307C549.604 616.054 551.462 617.094 553.058 617.417L553.244 616.782C551.551 613.978 543.467 606.257 540.583 603.446C517.472 580.919 491.046 556.948 462.004 542.733C435.437 529.73 409.912 524.9 380.573 525.17C375.132 525.22 364.545 524.91 359.712 526.591L360.85 528.386ZM570.778 531.03C572.328 532.681 573.365 534.203 575.464 534.8L576.191 534.449C576.812 529.491 563.835 509.113 560.98 504.05C533.723 455.727 483.617 417.793 427.1 414.549C424.388 414.394 421.01 414.365 418.304 414.703C415.338 414.954 409.886 414.959 407.827 416.879C408.134 417.534 407.889 417.297 408.658 417.567C413.147 419.146 417.836 419.917 422.388 421.275C430.716 423.761 439.041 426.904 446.967 430.472C456.313 434.678 465.842 439.372 474.507 444.844C504.098 463.53 549.538 503.158 570.778 531.03ZM319.879 777.929C333.677 780.414 348.278 783.708 361.917 787.091C370.313 789.173 378.336 792.286 386.987 794.197C379.975 788.555 367.653 782.595 359.452 778.303C331.869 763.869 291.348 748.011 259.822 752.2C234.437 754.158 203.525 765.496 182.278 779.378C194.472 777.758 209.206 774.044 220.504 773.114C251.992 770.522 289.017 772.167 319.879 777.929ZM91.2086 728.637C91.8724 730.33 92.4743 732.622 93.8728 733.599C95.3295 731.798 93.861 720.833 93.8057 718.018C93.5942 707.267 92.7421 696.249 93.122 685.501C94.5203 652.608 96.852 619.762 100.114 587.002C101.902 568.243 105.65 528.608 108.383 508.195C108.273 507.91 108.163 507.625 108.053 507.34C106.435 507.751 106.816 507.983 105.677 507.55C101.976 510.037 89.6539 560.065 88.3516 567.213C80.5413 610.08 75.4735 654.755 83.6276 697.948C85.8855 709.908 86.424 717.016 91.2086 728.637ZM258.056 404.634C265.553 391.223 274.594 368.356 281.311 353.654C302.726 307.137 322.951 260.081 341.967 212.532C340.856 212.488 339.821 212.144 339.112 213.141C305.826 259.872 266.811 324.14 259.172 381.04C258.138 389.913 257.862 395.709 258.056 404.634ZM658.395 508.704C659.44 505.814 659.786 505.248 659.284 502.302L659.123 501.314C658.176 495.742 654.601 485.674 652.822 480.134C639.381 438.291 612.99 396.307 576.621 370.869C568.884 365.457 547.638 353.281 538.348 351.961C540.434 354.698 545.941 359.089 548.722 361.523C552.921 365.224 556.99 369.069 560.921 373.052C591.011 403.711 617.619 440.123 640.69 476.318C643.32 480.445 657.691 508.661 658.38 509.248L658.395 508.704ZM752.377 404.838C754.801 407.646 757.856 411.233 759.348 414.637C762.865 418.471 766.305 422.787 769.633 426.814L770.182 426.465C771.689 419.728 755.351 389.024 751.757 382.513C727.828 339.175 691.579 306.225 642.715 293.439C681.224 321.059 723.885 366.561 752.377 404.838ZM803.26 182.25C836.081 174.964 869.571 171.113 903.189 170.761C910.523 170.721 917.718 171.013 925.028 171.534C925.895 171.596 926.652 171.193 927.309 170.638C924.181 169.052 916.072 167.735 912.266 166.856C892.275 162.239 872.996 159.852 852.422 160.227C814.332 161.573 775.494 171.547 745.847 196.854C745.028 197.553 744.63 198.436 744.514 199.468C745.122 199.971 745.148 200.222 745.802 200.063C753.66 198.155 762.369 194.26 770.106 191.739C781.041 188.181 792.099 185.016 803.26 182.25ZM868.639 299.202C877.908 302.812 889.006 307.44 898.294 310.482C891.277 303.327 883.273 298.345 874.821 293.091C843.333 273.517 807.178 260.018 769.781 259.612C767.376 259.601 764.972 259.638 762.568 259.724C752.219 260.161 732.824 261.051 723.732 265.65C725.184 267.33 729.717 267.522 731.988 267.675C768.937 270.17 806.167 278.217 841.244 290.008C849.779 292.877 860.327 295.901 868.639 299.202ZM610.446 107.672C610.388 105.966 610.477 105.688 609.886 104.059C608.853 103.544 608.264 102.921 607.146 103.617C570.538 126.412 538.44 159.945 520.484 199.442C518.461 203.89 512.531 220.322 513.215 223.68C516.657 222.023 531.498 200.369 535.194 195.501C548.112 178.771 561.484 162.396 575.295 146.395C582.969 137.403 596.339 121.778 604.876 113.951L610.446 107.672ZM639.765 199.404C643.263 195.697 645.935 191.124 649.147 187.163C672.585 158.257 699.814 129.691 728.709 106.261C735.095 101.132 741.543 96.0811 748.053 91.1097C750.524 89.2322 759.652 83.1655 760.308 80.5273C754.386 78.99 750.898 81.478 745.687 84.402C698.179 111.062 668.373 136.972 644.148 186.624C642.132 190.673 640.659 194.97 639.765 199.404ZM164.365 520.522C164.434 519.094 162.117 506.635 161.767 503.539C160.288 498.586 159.518 484.722 159.157 479.307C156.003 431.962 167.281 385.297 184.43 341.458C188.68 330.595 193.48 315.65 198.658 305.106L198.191 304.356C190.698 312.644 170.614 363.008 166.443 375.381C156.77 404.072 150.297 440.183 152.176 470.634C152.754 481.004 157.355 514.333 162.364 522.238L164.365 520.522ZM257.942 381.405C266.368 315.902 302.685 264.381 337.366 210.705L336.593 209.811C330.097 216.282 321.569 228.096 315.852 235.647C305.897 248.887 296.776 262.734 288.543 277.108C267.53 313.24 254.22 345.664 253.221 388.587C253.139 392.088 253.519 408.459 254.831 410.513C256.614 406.113 256.842 388.141 257.942 381.405ZM291.894 348.328C304.393 340.934 328.216 325.591 339.235 316.098C340.989 311.043 346.473 295.571 346.049 290.701L345.87 290.606C332.709 298.772 317.269 307.318 304.806 315.585C303.542 318.738 291.641 347.366 291.67 348.187L291.894 348.328ZM80.5279 696.444C80.6734 693.885 79.2461 683.228 78.8966 680.388C77.8483 672.413 77.1008 664.402 76.6557 656.372C76.2652 648.891 76.9337 640.697 77.4324 633.162C78.5843 614.46 80.8875 595.847 84.3289 577.428C87.2055 562.56 90.7428 547.828 94.9303 533.276C96.1555 529.14 105.423 499.415 106.315 498.811L107.025 499.015L108 497.945C106.756 497.097 106.446 496.989 105.751 495.58L104.993 495.801C82.134 544.667 68.5275 605.496 71.9211 659.629C72.3539 666.534 75.5238 693.147 78.9513 697.819L79.2079 697.865L80.5279 696.444ZM102.696 650.316C112.608 633.342 124.024 616.617 133.457 599.726C133.48 590.043 132.477 578.249 130.212 568.849C124.065 583.433 112.715 601.167 103.562 614.121C103.269 619.725 101.364 647.42 101.829 651.131C102.62 650.705 102.361 651.005 102.696 650.316ZM479.072 503.508C478.913 501.407 474.975 489.259 473.963 486.182C470.65 476.101 467.617 458.746 463.684 449.65C455.68 444.948 441.072 436.659 432.398 434.777C438.184 441.999 440.553 444.965 444.816 453.383C450.831 465.263 454.234 479.18 461.011 490.214C463.85 494.836 474.109 501.751 479.072 503.508ZM378.328 724.235L378.772 723.649C376.905 721.041 367.493 713.642 364.243 710.413C356.855 703.075 350.207 694.282 341.824 688.306C338.29 685.825 328.586 684.221 323.979 683.458C319.152 682.677 314.307 682.005 309.449 681.442C318.181 687.949 322.59 692.196 330.18 699.602C336.965 706.222 352.481 721.951 360.723 726.181C367.367 725.977 371.847 725.969 378.328 724.235ZM469.56 615.089C465.303 606.304 450.017 571.632 444.168 566.775C438.778 562.298 429.439 559.106 422.811 556.806C420.632 556.07 418.431 555.4 416.212 554.796C427.901 568.274 433.259 578.955 441.665 594.464C444.57 599.826 449.312 606.892 452.664 612.057C457.777 613.288 464.407 614.967 469.56 615.089ZM288.357 791.103L289.951 790.686C299.266 799.985 313.374 809.2 324.997 815.424L341.013 810.37C329.286 803.862 323.652 798.039 313.606 789.252C312.05 787.891 309.028 785.755 307.211 785.261C303.267 784.187 285.692 782.443 282.27 782.769L282.63 783.605L282.411 784.469C277.788 780.918 255.449 780.873 249.242 781.725C263.709 791.523 289.577 816.169 304.834 821.152C309.332 820.168 314.984 819.095 319.258 817.648C307.896 809.083 298.783 800.706 288.357 791.103ZM353.246 725.544C347.094 720.299 341.801 714.774 336.121 708.965C327.952 700.611 316.475 685.757 305.955 681.282C301.673 679.461 282.562 678.06 277.373 678.009C298.229 689.29 313.064 703.371 328.086 721.468C337.936 724.578 342.796 725.373 353.246 725.544ZM501.553 515.257C499.787 509.303 497.591 503.357 496.014 497.41C493.442 487.715 491.756 477.767 489.746 467.965C489.114 463.73 488.426 463.846 484.962 461.678C479.695 458.536 472.23 453.754 466.773 451.745C471.792 469.24 476.199 492.912 485.147 508.31C491.103 511.568 495.078 513.14 501.553 515.257ZM100.758 690.123C110.141 669.357 123.742 649.479 133.191 628.894C134.661 625.693 134.034 609.634 133.264 605.857C130.42 609.895 126.958 615.811 124.269 620.207C117.567 631.166 106.121 646.921 101.878 658.465C100.851 661.259 100.016 685.637 100.287 689.577L100.758 690.123ZM292.875 822.638L295.854 822.331C295.707 821.323 294.054 820.434 293.065 819.722C285.327 814.149 280.063 809.678 272.718 803.427C265.139 796.976 254.558 784.995 244.839 781.764C242.621 781.027 232.618 781.637 229.913 781.739C227.996 782.021 227.496 781.747 226.282 782.807C228.222 785.427 265.226 815.34 270.062 818.661C272.446 820.298 277.099 822.416 280.128 822.782C283.995 823.248 288.944 823.054 292.875 822.638ZM185.845 469.281C198.68 456.25 213.069 441.41 222.407 425.61C223.744 423.348 224.788 407.689 223.059 405.396C211.214 418.048 199.495 429.471 187.572 441.791C187.261 447.708 184.834 465.107 185.316 469.29L185.845 469.281ZM454.47 138.531C418.687 172.774 382.772 226.607 381.509 277.692C381.458 279.771 381.624 284.853 382.33 286.655L382.801 286.92L384.228 286.235C384.909 283.689 384.967 279.482 385.529 276.272C386.347 273.536 387.018 270.005 387.608 267.187C394.927 232.235 409.778 203.153 429.918 173.84C433.925 167.918 438.157 162.152 442.606 156.555C444.586 154.088 454.885 141.763 455.816 139.91L454.47 138.531ZM651.12 310.523C662.21 323.825 667.766 342.88 671.91 359.468C673.321 365.115 674.717 372.193 676.856 377.54C678.322 381.201 687.665 392.283 691.531 392.453C692.854 390.654 689.468 381.839 689.027 379.064C686.405 362.557 683.461 349.909 676.671 334.574C676.545 334.485 672.436 328.75 671.45 327.733C665.379 321.472 659.072 315.097 652.421 309.473L652.125 309.412L651.12 310.523ZM805.423 321.747C812.021 322.031 819.944 322.32 826.463 321.632L827.512 322.511C828.706 322.308 828.874 322.248 830.013 321.819C831.382 321.344 846.003 319.612 848.786 319.19C841.881 311.599 832.066 303.268 824.597 295.671C825.353 295.383 824.954 295.492 825.991 295.36L826.828 295.261L827.201 294.047C827.537 297.361 835.141 303.062 838.016 305.608C842.86 309.906 847.602 314.318 852.236 318.842C856.127 318.056 864.532 316.131 868.117 315.992L870.615 315.168C876.274 314.392 882.85 314.159 888.609 313.885C885.42 312.281 882.197 310.746 878.942 309.28C878.414 307.135 870.674 306.397 867.872 304.147L868.887 303.65C856.725 299.607 843.671 295.382 831.363 291.787C821.105 288.791 809.461 286.506 798.975 283.707L800.535 282.598C797.438 281.796 794.634 280.888 791.437 280.929L790.67 281.847C788.249 281.983 778.524 279.466 774.532 279.05C772.969 279.294 771.408 279.552 769.848 279.821C767.2 279.572 764.317 279.227 761.677 279.181C777.507 292.028 792.148 306.274 805.423 321.747ZM705.838 365.101C705.333 363.787 705.143 362.51 704.849 361.123C701.733 357.929 687.149 341.063 684.327 340.645L683.582 341.747L682.663 342.463C682.65 343.776 685.236 351.077 685.961 353.744C689.808 367.894 691.314 386.932 699.397 399.086C700.757 401.131 708.016 405.729 710.947 406.294L712.184 405.882C713.233 403.247 711.887 401.208 711.113 398.359C708.491 388.703 706.535 375.05 705.838 365.101ZM445.375 609.053C443.92 604.333 440.126 598.411 437.626 593.146C431.191 579.594 423.436 562.549 411.321 553.102C409.318 551.54 397.171 548.382 394.248 548.375C395.671 552.241 402.39 558.709 405.067 562.664C415.039 577.392 424.826 607.492 445.375 609.053ZM190.206 435.13C199.237 426.9 216.655 409.647 223.962 399.923C223.799 396.715 222.792 381.212 220.858 379.389C212.526 387.714 199.491 399.032 192.234 407.102C191.268 413.711 188.888 429.812 188.708 436.215C189.845 435.642 189.35 436.01 190.206 435.13ZM860.67 209.897C867.034 207.041 875.209 202.12 881.454 198.551C867.016 194.303 847.919 186.859 833.295 184.214C831.68 183.922 815.016 187.152 813.102 189.038C813.642 190.647 813.691 190.816 815.42 191.548C830.467 197.914 845.768 203.125 860.67 209.897ZM606.911 463.918C605.862 459.503 606.605 444.192 606.962 439.374C603.045 434.649 594.511 422.216 590.279 419.116C589.006 418.903 589.066 418.877 587.805 419.1C586.594 421.635 587.841 431.244 588.122 434.498C589.204 446.534 589.644 468.29 599.323 474.979C601.266 476.321 605.023 479.872 607.331 479.992C609.879 477.621 606.999 468.149 606.911 463.918ZM586.559 434.5C586.121 411.315 585.314 411.384 570.597 395.454L567.71 396.144C572.521 412.595 571.663 425.344 572.482 442.165C572.938 451.522 579.762 459.137 586.802 464.803L587.924 465.021L589.221 463.98C587.639 452.654 586.956 445.886 586.559 434.5ZM666.313 179.852C686.069 173.751 707.872 166.502 725.959 156.48C729.196 154.687 740.456 141.896 740.278 139.107C731.264 142.754 722.293 146.599 713.212 150.092C703.334 153.891 693.435 156.925 684.048 161.919C680.733 163.683 665.791 177.354 666.313 179.852ZM781.733 197.592C799.44 200.134 821.146 214.171 839.53 215.938C843.586 216.328 853.276 212.009 858.028 211.239C853.461 208.995 843.537 205.18 838.468 203.246C829.393 199.783 814.137 193.096 804.966 191.274C802.292 191.404 800.698 191.416 798.054 191.985C792.603 193.824 787.162 195.692 781.733 197.592ZM492.005 616.555C491.501 614.32 482.619 599.591 480.954 596.332C478.603 591.73 475.059 584.693 472.529 580.179C468.132 578.19 454.686 571.009 451.399 570.251C450.712 572.135 450.632 572.28 451.691 574.506C458.484 588.775 465.631 602.246 473.447 615.964C478.972 616.182 486.64 616.684 492.005 616.555ZM544.111 196.539C557.048 192.286 569.949 185.377 582.729 180.505C587.822 178.564 593.405 175.992 597.947 173.036C600.246 171.485 605.92 160.258 606.143 157.793L605.821 157.559C592.002 162.723 570.808 170.344 557.693 177.447C556.057 178.333 544.955 192.899 543.521 195.297C543.754 196.393 543.47 196.033 544.111 196.539ZM395.631 721.407C397.484 721.107 397.906 721.287 399.328 720.278C390.909 711.232 384.955 702.727 377.11 694.133C371.348 692.979 350.417 688.157 345.856 688.079C345.848 692.943 378.739 719.426 384.299 723.428L395.631 721.407ZM506.101 516.828C511.714 519.097 515.448 520.293 521.401 521.467C520.078 517.903 517.616 511.59 516.782 508.008C514.598 498.624 513.311 490.699 510.119 481.457C506.31 477.986 502.539 474.499 498.592 471.184C495.908 469.061 494.687 467.689 491.375 467.638C492.366 480.143 499.515 506.598 506.101 516.828ZM526.257 220.608C534.762 216.866 543.297 213.192 551.86 209.584C572.372 201.025 580.331 200.177 593.299 181.126L593.354 180.164C592.243 179.821 592.645 179.818 591.547 179.909C579.945 184.573 568.427 189.443 556.999 194.517C550.616 197.331 542.723 200.469 537.143 204.466C534.793 206.149 525.186 218.063 524.773 220.251C525.367 220.43 525.654 220.577 526.257 220.608ZM690.323 155.852C705.938 150.126 721.093 144.722 736.266 137.864C748.244 132.45 749.605 127.783 755.269 117.04L754.926 116.585C739.29 124.025 722.619 129.676 706.818 136.599C701.458 138.947 694 149.31 689.821 153.695C689.361 154.199 690.029 155.362 690.323 155.852ZM183.305 499.141C191.908 486.908 202.107 476.788 211.41 465.14C216.549 458.707 221.201 444.05 221.013 435.987L220.443 434.951C209.408 448.794 197.438 461.864 184.616 474.07C184.249 477.885 181.892 497.171 183.305 499.141ZM280.293 375.196C295.685 365.264 312.493 354.43 326.398 342.312C329.874 339.283 336.872 326.986 336.766 322.498L289.251 353.745C287.919 356.735 280.026 373.352 280.293 375.196ZM413.363 255.829C419.682 252.991 425.597 249.56 431.806 246.654C446.396 239.827 460.669 230.572 465.207 213.871L464.813 213.514C451.069 220.606 436.825 226.033 423.252 233.522C419.312 240.788 416.26 247.672 413.026 255.277L413.363 255.829ZM308.669 309.658C318.434 304.585 339.573 291.84 347.148 285.032C348.108 280.456 348.947 271.58 349.146 266.807L348.761 266.519C339.362 272.069 324.907 280.439 316.905 288.017C314.46 290.332 309.775 302.969 308.226 306.729C307.79 307.788 308.014 308.666 308.669 309.658ZM541.041 364.206C539.267 362.376 534.257 357.147 531.786 357.015C532.729 360.385 534.528 360.98 536.902 363.071C548.327 373.146 554.846 388.413 557.171 403.256C558.524 411.893 558.732 420.644 560.114 429.256C560.72 433.029 565.361 443.323 568.932 444.781C571.118 441.692 569.198 411.898 568.348 406.838C567.889 404.104 567.252 401.431 566.546 398.752C561.962 384.948 559.514 382.447 548.666 372.324C546.411 370.219 542.861 366.723 541.041 364.206ZM255.302 818.795C258.846 819.543 262.555 820.387 266.115 820.966C260.377 816.175 254.594 811.747 249.038 806.73C239.629 798.235 231.861 789.636 221.034 782.793C219.103 782.862 216.24 782.873 214.417 783.2C209.711 783.64 205.014 784.169 200.328 784.786C207.251 788.48 213.885 792.692 220.172 797.387C233.412 807.342 238.879 814.642 255.302 818.795ZM799.249 319.994C797.399 314.624 764.042 282.716 756.663 279.22C753.12 277.541 745.998 276.204 741.801 276.609C742.426 278.761 749.755 284.414 752.08 286.376C761.94 294.697 770.183 307.164 779.548 315.438C782.17 317.754 795.696 320.277 799.249 319.994ZM426.779 228.735C432.324 226.391 437.354 223.527 442.746 220.995C451.495 216.888 459.779 213.242 467.975 208.005C470.308 203.927 472.142 197.039 473.269 192.418C472.749 191.935 472.909 191.999 472.696 191.956C459.794 197.435 448.036 202.995 435.539 208.465C433.539 212.008 426.422 224.958 426.138 228.554L426.779 228.735ZM321.133 719.797C310.937 704.058 292.156 690.638 276.218 680.984C270.626 677.597 262.948 676.105 256.473 676.623C261.914 681.793 270.149 687.147 276.084 692.068C288.571 702.419 304.374 717.289 321.133 719.797ZM420.563 597.103C420.473 594.941 415.605 588.393 414.381 585.975C405.677 568.787 396.641 546.797 375.651 542.712C375.204 544.12 374.328 545.492 375.364 546.784C388.842 563.606 400.093 587.701 420.563 597.103ZM719.17 411.485C721.918 412.615 728.606 416.486 730.248 413.014C730.099 409.578 729.01 407.527 728.391 404.261C728.031 402.362 727.896 399.573 727.71 397.568C727.154 392.613 726.233 388.475 725.934 383.287C723.682 380 712.558 366.439 709.016 365.396L707.646 366.261C708.859 382.634 710.994 397.079 719.17 411.485ZM106.723 605.223C111.771 597.849 116.367 590.648 120.682 582.833C128.562 568.561 131.343 562.349 125.128 546.786C122.076 553.094 118.82 559.302 115.367 565.399C113.081 569.37 107.601 578.346 106.147 582.192C104.578 586.342 103.986 603.386 104.564 607.548L104.985 607.694L106.723 605.223ZM413.471 431.593C422.593 442.709 427.252 452.007 433.523 464.664C436.036 468.48 439.409 472.203 442.606 475.459C444.581 477.472 449.485 483.367 451.946 483.041L452.763 481.808C452.024 477.829 442.667 456.022 440.33 451.848C432.973 438.704 426.885 432.29 412.778 427.965L413.471 431.593ZM100.257 716.146C107.105 705.962 114.102 692.191 119.987 681.289C123.631 674.538 130.149 652.315 130.466 644.489C130.179 643.95 130.119 643.675 129.703 643.294C120.016 658.172 106.336 684.988 100.001 701.884C99.0197 704.501 99.6146 713.08 100.257 716.146ZM563.208 171.552C567.256 170.335 571.333 168.642 575.239 166.998C586.138 162.413 597.424 158.749 607.952 153.334C608.917 150.857 612.839 140.475 612.822 138.08C602.037 143.42 590.915 147.494 579.872 152.148C575.244 154.098 565.934 165.92 563.186 170.494L563.208 171.552ZM607.995 463.92C609.032 472.016 611.829 482.553 618.646 487.752C620.945 489.507 624.291 492.067 626.645 489.598C626.204 483.415 624.02 478.975 624.76 472.638C624.931 470.147 624.983 467.47 625.079 464.959C621.153 458.791 613.633 446.746 608.473 442.211C607.411 450.288 607.746 455.779 607.995 463.92ZM468.937 137.141C469.619 136.481 471.11 133.817 471.675 132.878C470.676 132.049 469.915 131.519 468.867 130.774L465.735 133.9C428.132 172.732 387.74 235.034 386.444 291.501C386.415 292.751 386.578 294.77 386.682 296.066C390.16 289.124 393.507 281.171 396.607 273.955C417.182 226.072 443.253 182.371 468.937 137.141ZM195.609 380.106L195.57 380.774C195.267 385.356 192.849 396.82 193.97 400.007L194.665 400.325C194.87 400.214 196.145 399.544 196.292 399.425C205.368 391.456 212.558 383.995 220.836 375.479C220.146 369.816 218.601 360.715 216.652 355.318C208.939 366.339 204.943 370.446 195.609 380.106ZM711.161 131.694C727.426 126.972 743.042 120.252 757.653 111.686C759.348 108.47 763.368 100.648 764.175 97.2573L763.96 97.1886C754.111 102.576 743.705 106.888 733.469 111.432C725.978 114.758 721.127 118.533 715.755 124.748C713.988 126.793 711.88 128.462 710.722 130.959L711.161 131.694ZM818.076 219.465C822.658 218.937 826.891 218.5 831.425 217.572C816.157 212.127 791.378 202.015 776.276 199.581C773.512 200.411 765.754 202.427 764.056 204.239C765.011 206.281 776.186 208.735 778.913 209.322C790.716 211.862 806.33 220.075 818.076 219.465ZM422.32 714.579L424.024 713.15C426.648 713.805 438.134 708.731 441.541 707.605C437.761 705.46 433.693 702.817 429.855 700.934C425.345 701.259 414.15 700.072 409.011 699.69L408.768 699.984L409.608 701.072L408.953 701.993C408.338 701.506 406 699.685 405.394 699.525C398.592 697.74 386.872 695.442 380.137 695.027C385.751 702.552 396.603 715.475 404.446 720.081C407.534 719.289 420.045 715.879 422.32 714.579ZM539.954 526.187L541.183 525.735C533.876 509.647 533.442 497.61 516.572 487.189C515.842 488.591 515.311 489.589 514.46 490.917C515.382 499.613 520.065 515.385 525.067 522.593C530.266 524.171 534.663 525.078 539.954 526.187ZM438.79 204.242C449.054 199.263 466.062 192.827 474.72 187.733C475.998 182.827 476.669 177.782 476.72 172.712L476.075 172.42C466.963 176.37 452.246 183.383 444.727 190.237C443.518 191.34 438.85 201.924 438.3 204.138L438.79 204.242ZM883.016 196.786C885.398 196.21 895.195 190.856 897.517 189.396C888.596 186.781 877.974 181.634 869.253 180.07C863.786 179.089 846.77 181.443 841.212 182.947C849.818 183.982 846.404 185.547 852.83 187.659C862.733 190.914 873.024 193.726 883.016 196.786ZM650.065 197.583L650.652 197.803C672.621 190.956 699.836 182.365 716.368 166.361C711.425 167.225 700.954 171.317 695.832 173.395C687.091 176.941 662.508 183.305 656.554 188.998C654.375 191.767 652 194.663 650.065 197.583ZM510.797 616.941L511.255 616.213C509.165 612.108 505.783 608.259 503.922 605.034C496.432 592.057 492.958 591.372 479.723 584.56C478.906 585.358 478.136 585.721 478.357 586.477C480.776 594.754 491.53 610.802 496.385 617.17C501.204 617.182 505.986 617.253 510.797 616.941ZM326.84 264.281C322.284 268.013 320.147 276.535 318.363 282.179C324.413 279.651 344.71 266.037 349.741 261.634C350.18 256.479 349.894 252.525 349.628 247.389C343.219 251.585 332.492 259.175 326.84 264.281ZM768.615 309.65C767.433 304.347 741.798 280.94 735.622 277.309C730.322 274.193 723.604 274.299 717.336 273.868C723.182 277.654 729.883 284.238 735.272 288.461C740.392 292.473 763.582 310.112 768.615 309.65ZM554.909 421.967C557.047 419.329 555.996 414.983 555.769 411.509C554.867 397.659 548.818 378.101 538.651 368.236L536.916 367.706C536.047 368.853 535.569 369.126 536.011 370.922C538.898 382.637 548.021 412.88 554.909 421.967ZM404.45 274.559C414.952 270.107 429.286 262.133 438.375 255.099C441.377 252.776 450.278 242.602 450.958 239.025C438.714 246.417 422.485 255.323 409.467 261.4C408.578 263.469 404.213 272.99 404.45 274.559ZM181.508 522.445C186.773 514.809 191.852 508.088 197.801 501.037C202.312 495.691 211.391 478.004 212.034 471.248L211.399 470.363C202.589 479.627 174.655 509.671 181.508 522.445ZM670.233 367.388C668.435 349.38 656.022 318.099 642.896 305.354C642.615 305.081 642.317 304.971 641.974 304.816C642.62 312.266 663.58 365.114 670.233 367.388ZM533.893 170.334C537.482 165.8 535.243 165.274 538.589 161.376L539.986 157.963C541.117 156.582 542.301 155.302 542.418 153.627C540.952 154.053 540.168 155.629 539.201 156.978C536.253 160.305 535.141 162.709 531.286 164.961L530.045 166.427C524.608 174.78 522.712 179.012 518.086 186.963C513.558 195.602 507.172 214.661 506.884 224.191C506.331 225.214 506.34 226.498 506.671 227.57L507.453 227.957C510.087 227.053 510.114 224.49 510.595 222.055C512.248 218.392 514.358 209.634 516.072 205.351C518.686 198.816 521.542 192.775 524.319 186.363C526.79 182.82 531.456 174.394 533.893 170.334ZM350.603 211.959C343.712 218.968 336.771 225.197 335.703 236.166L336.31 237.277C339.532 237.124 346.018 228.993 350.105 226.076C350.224 223.982 350.915 213.24 350.603 211.959ZM303.534 675.44C303.967 676.478 304.005 677.393 305.204 677.758C308.239 678.684 324.301 682.066 326.03 680.312L326.084 679.546C322.911 677.536 307.912 675.92 303.534 675.44ZM343.432 217.526C346.448 215.051 348.569 212.829 351.297 210.486C351.849 207.348 353.033 201.1 352.867 197.961C348.881 203.177 345.129 210.599 343.275 216.919L343.432 217.526ZM912.491 182.178C915.896 180.913 921.614 179.006 924.548 177.232C917.652 177.134 913.506 176.951 906.577 177.649L906.863 178.627C908.559 180.517 910.195 181.067 912.491 182.178ZM478.793 116.148C474.044 118.996 460.172 132.984 454.999 137.692C455.448 137.869 455.742 138.019 456.253 138.05C460.175 138.29 475.238 119.824 478.793 116.148ZM459.265 699.884C450.973 700.339 442.337 700.477 434.004 700.754C435.879 702.225 440.616 704.908 441.493 706.01C446.678 706.735 454.846 702.529 459.265 699.884ZM295.708 378.229C305.897 371.686 314.357 362.781 320.37 352.271C313.765 356.387 307.291 361.256 300.642 365.73C293.419 370.59 284.366 375.414 277.711 380.833C276.495 381.824 273.971 388.299 273.19 390.214L277.95 388.259L278.524 389.006L272.445 391.556C269.255 397.265 266.413 403.266 263.564 409.156C273.149 397.728 284.589 390.39 296.021 381.66L298.432 379.977L298.499 379.21C297.546 378.927 296.625 378.613 295.708 378.229ZM581.626 149.037C593.801 144.676 602.675 140.453 614.162 134.55C615.408 131.183 617.164 126.871 617.822 123.448L617.421 123.044C606.056 127.617 592.583 131.811 585.373 142.225C584.121 144.034 581.597 146.172 581.008 148.244L581.626 149.037ZM565.757 131.302C567.955 131.212 575.263 123.857 577.498 121.847C579.664 119.843 582.489 117.838 584.9 115.678C588.315 113.466 589.289 112.859 591.646 109.52C587.471 110.946 585.874 112.153 582.524 114.777C580.945 115.871 576.903 118.923 575.6 120.315C573.159 122.25 565.734 127.6 564.989 130.099L565.757 131.302ZM622.15 106.446C625.401 104.472 626.825 99.3443 628.314 95.6731C624.786 96.3134 615.569 105.093 614.342 108.148L614.739 108.841C617.323 109.062 619.719 107.577 622.15 106.446ZM478.267 153.978C463.314 163.537 455.514 165.827 448.792 182.683L449.271 183.513C458.46 178.648 469.022 173.448 477.889 168.402C478.239 163.795 478.724 158.91 478.638 154.314L478.267 153.978ZM667.585 138.268C661.665 143.546 654.048 155.516 650.876 162.891C650.204 164.162 649.705 164.987 649.211 166.347C650.499 168.417 649.872 168.797 650.643 170.526C652.101 168.133 653.112 166.472 654.315 163.899C658.139 157.214 662.574 152.018 665.774 144.994L665.649 144.996C666.223 141.795 666.967 141.7 667.847 138.491C672.651 137.107 669.083 138.401 671.658 138.565C673.614 136.557 675.518 134.499 677.368 132.394L689.014 120.732C693.506 116.529 699.321 112.114 704.164 108.151C704.773 107.72 705.385 107.261 705.989 106.819C707.456 105.932 714.081 101.371 714.975 100.558C717.631 98.1434 737.503 86.4747 737.795 85.7179L735.447 84.5643C726.781 87.8125 710.276 98.9589 702.969 104.752L700.983 106.399C694.745 110.741 690.292 114.617 684.799 119.827C682.734 121.017 677.753 125.757 676.841 127.781C673.911 130.732 669.586 134.787 667.585 138.268ZM360.94 687.411C358.941 685.205 347.594 682.792 345.291 684.523C347.537 686.184 356.292 687.683 359.431 688.204L360.94 687.411ZM734.693 107.985C741.209 105.394 747.605 102.51 753.862 99.3441C756.691 97.941 762.849 94.6213 765.558 93.6016C767.178 91.0862 769.965 87.3731 770.666 84.74L770.412 84.0491L768.532 84.0232C755.912 88.4444 750.648 91.073 740.557 100.549C738.355 102.616 735.005 105.035 733.228 107.448L733.302 108.188C733.702 108.139 734.331 108.091 734.693 107.985ZM329.181 680.106L329.654 681.5C332.326 682.655 338.619 684.583 341.435 683.336C340.744 682.114 340.828 682.05 338.915 681.672C336.135 681.122 331.943 680.325 329.181 680.106ZM782.873 216.471C784.062 215.924 784.388 215.707 785.51 215.043C784.253 212.543 758.56 207.276 754.952 207.68C752.556 208.036 752.178 207.681 750.617 208.978C751.025 209.916 751.21 210.259 752.392 210.472C762.006 212.207 773.399 215.198 782.873 216.471ZM761.358 276.357C763.666 277.277 767.375 278.089 769.836 277.845L770.67 276.862C768.958 275.379 763.336 275.031 760.83 274.716C757.211 274.084 748.307 272.418 744.75 273.381L744.441 273.68C747.982 274.81 757.913 276.943 761.358 276.357ZM180.291 539.629C182.683 536.446 194.635 513.955 194.359 511.313L193.826 510.821C189.508 515.343 175.495 533.865 180.291 539.629ZM618.564 119.534C620.356 115.9 621.601 112.189 622.557 108.262C616.163 112.163 612.153 114.72 605.342 117.779C604.018 118.499 598.044 127.339 596.609 129.363C603.625 126.544 611.649 122.677 618.564 119.534ZM399.647 544.365C400.294 545.74 400.856 546.877 402.519 547.16C409.156 548.288 436.824 561.053 440.83 560.445C437.363 556.417 405.708 545.088 399.647 544.365ZM772.398 79.9692C776.213 79.1931 779.073 73.0632 782.151 69.1287C777.167 73.5366 773.848 74.3859 769.868 77.6878L772.398 79.9692ZM430.667 697.93C433.153 699.182 440.374 698.609 443.358 698.474C447.155 698.498 448.946 698.273 452.724 697.758L454.079 696.888L453.63 695.99L443.955 696.659C440.155 696.607 435.606 696.424 431.88 696.697L430.667 697.93ZM483.687 584.067L484.305 581.826C482.064 580.406 478.064 578.396 475.616 577.067L475.784 579.199C478.147 580.539 481.771 583.098 483.687 584.067ZM540.678 618.228C539.006 617.207 537.325 616.533 535.538 615.747C530.663 612.989 509.817 600.782 505.965 600.467L505.011 600.938C504.344 604.942 512.681 614.115 515.582 617.152C520.728 617.226 525.925 617.341 531.067 617.352C533.382 617.386 538.183 617.996 540.678 618.228ZM105.323 579.13C111.817 567.095 118.718 554.913 124.397 542.49C123.473 538 122.689 534.113 120.64 529.992C119.393 535.097 111.708 550.121 108.301 554.505C105.437 561.091 106.319 571.172 105.323 579.13ZM386.799 541.785C388.439 543.663 393.418 544.917 395.762 543.707C394.258 541.825 389.739 541.225 387.213 540.679L386.799 541.785ZM213.334 339.375C208.413 347.465 204.987 351.656 198.513 358.607C197.82 362.403 196.848 369.523 196.917 373.346L197.247 373.788L198.087 373.179C206.719 364.753 209.283 361.56 215.89 351.192C215.126 347.283 214.404 343.195 213.334 339.375ZM203.258 330.599C200.325 335.534 199.836 347.849 199.324 353.879C205.869 346.848 208.148 343.256 212.718 334.749C212.029 327.424 211.84 324.03 209.554 317.002L208.648 315.542C210.176 311.44 209.227 307.431 207.485 303.488L206.829 303.409C204.71 307.325 202.903 324.676 202.087 330.135L202.877 330.15L203.258 330.599ZM283.979 703.603C282.346 701.803 281.584 700.958 279.306 700.034C280.13 702.7 280.996 703.461 283.979 703.603ZM278.725 700.221C276.672 697.351 276.386 697.131 273.718 694.942C265.233 687.658 249.541 672.12 237.755 674.993L237.766 675.59C240.138 677.437 242.947 678.881 245.573 680.353C254.582 685.405 263.046 691.277 271.847 696.676C274.514 698.644 275.735 699.046 278.725 700.221ZM856.337 178.421L856.848 177.334C853.873 177.502 852.636 177.561 849.652 178.257L849.796 179.266C851.924 178.926 854.187 178.687 856.337 178.421ZM743.139 80.4761C741.743 81.2187 740.247 81.9582 738.937 82.821C740.821 83.4248 743.615 83.9212 745.154 82.3156L744.977 81.4867L743.139 80.4761ZM112.905 497.702C110.445 507.254 107.538 538.172 107.958 548.308C112.696 547.146 119.715 529.845 120.197 525.124C119.66 522.033 118.499 518.025 117.686 514.906C117.335 516.504 117.271 517.869 116.367 519.066C116.615 515.129 117.461 498.412 113.213 497.004L114.275 496.391C114.717 494.292 113.811 489.729 113.457 487.301C113.185 489.929 112.417 495.361 112.905 497.702ZM734.487 417.592C737.742 419.167 742.777 421.861 746.199 422.109C742.431 410.875 744.352 403.832 735.295 394.641C732.539 391.844 731.726 390.377 728.113 387.715C728.275 390.44 728.477 393.162 728.719 395.881C729.833 403.372 731.037 410.706 734.487 417.592ZM407.929 694.6C407.377 695.473 407.866 696.04 408.23 696.802C410.631 698.126 414.124 698.056 416.839 698.029L417.924 696.521L417.75 695.931C415.715 694.979 410.649 694.887 407.929 694.6ZM448.621 563.996C446.891 561.832 443.645 560.582 440.928 560.441C442.853 563.175 445.202 564.703 448.621 563.996ZM788.867 192.3L795.168 190.779L797.326 190.174L793.543 188.991C791.373 189.644 789.16 190.286 787.106 191.242C784.527 191.18 776.954 193.656 774.828 195.495L775.004 195.941C777.432 196.981 786.949 193.805 788.867 192.3ZM881.158 175.193L875.263 175.632L876.86 176.796C878.73 176.811 880.59 176.609 882.454 176.447L881.158 175.193ZM479.856 135.015C483.084 131.242 483.231 128.912 484.276 124.086C484.509 122.008 485.433 119.107 486.019 117.019L485.773 116.419L486.208 115.753C484.464 116.924 483.917 118.49 482.614 120.361C479.234 125.289 475.846 131.311 472.905 136.587C471.458 138.838 470.033 141.001 468.722 143.338L469.707 143.615C471.545 142.698 472.521 141.307 473.899 139.751C475.576 138.255 478.04 136.441 479.856 135.015ZM401.013 280.452C399.374 283.283 393.987 292.259 393.321 294.654L393.825 294.841L394.257 294.537C400.01 290.905 423.943 273.737 425.675 268.959C424.706 268.328 425.204 268.447 424.226 268.454C416.761 272.347 408.547 276.856 401.013 280.452ZM514.12 237.727C523.99 234.141 561.471 217.08 566.474 208.88L566.227 208.147C564.775 207.745 565.329 207.754 563.862 207.981C550.482 213.295 537.288 218.286 524.705 225.328C522.401 226.617 519.674 228.113 517.245 229.063C515.727 231.416 513.191 235.005 512.359 237.522L512.616 238.133L514.12 237.727ZM417.92 425.116C415.622 424.465 412.716 423.437 410.414 423.485L411.153 423.545L411.579 424.181C413.36 424.795 415.175 425.454 416.985 425.952L417.92 425.116ZM349.501 229.262C340.372 236.248 327.826 249.681 325.685 261.444C328.806 260.615 343.765 248.106 348.769 245.096C350.353 242.74 349.594 232.738 349.501 229.262ZM471.055 448.259C471.489 451.062 473.06 452.787 476.085 452.105C476.288 449.802 472.976 448.773 471.055 448.259ZM926.6 174.553L924.594 175.683L926.277 176.304C929.985 175.55 932.254 175.856 937.013 174.63C933.543 174.516 930.071 174.491 926.6 174.553ZM428.49 428.837L428.825 430.421C431.451 431.417 433.463 432.275 436.318 432.471L436.239 431.975C433.897 430.321 431.228 429.681 428.49 428.837ZM458.863 568.914C459.626 571.468 460.601 571.753 463.246 572.02C463.187 569.314 461.3 569.3 458.863 568.914ZM346.555 807.464C349.502 806.561 352.446 805.689 355.349 804.654L356.852 804.244C356.047 802.549 349.348 798.639 347.574 796.749C340.979 789.723 323.91 785.818 314.644 786.529C318.488 793.274 339.502 804.426 346.555 807.464ZM219.795 804.94L220.324 805.002L221.084 803.525C219 798.811 187.57 778.061 184.964 787.757C185.482 788.666 186.355 789.61 187.359 789.962C198.683 793.941 208.876 800.022 219.795 804.94ZM677.314 328.594C679.785 331.804 681.436 332.327 681.093 335.714C683.545 335.979 681.695 335.077 683.769 335.338L684.737 334.819C683.637 332.883 679.608 329.029 677.314 328.594ZM111.401 703.462C108.672 707.432 94.7205 731.57 100.112 734.836C101.677 730.746 112.665 706.174 111.687 703.894C111.619 703.735 111.497 703.606 111.401 703.462ZM424.238 454.482C418.645 441.122 410.641 430.214 396.998 424.008C396.314 423.697 395.974 423.704 395.26 423.777C395.107 426 401.861 433.026 403.924 435.395C409.997 442.345 416.233 449.15 422.627 455.806L424.238 454.482ZM469.999 145.897C468.918 146.795 467.369 147.406 466.069 148.015C463.279 152.92 460.062 160.052 457.555 165.272C464.909 159.47 471.886 156.121 479.345 149.45C479.939 145.743 480.72 140.858 480.779 137.197C478.445 138.906 471.717 143.919 469.999 145.897ZM765.479 198.616L765.339 199.091L766.257 199.672C768.847 199.34 770.684 199.169 772.529 197.234L772.175 196.742C769.379 196.789 768.058 197.557 765.479 198.616ZM449.501 564.403C451.04 567.396 454.265 569.239 457.551 567.943C455.039 566.01 452.686 564.795 449.501 564.403ZM268.449 672.728L267.637 674.565C269.526 675.023 298.658 676.959 300.227 676.734C300.142 675.828 300.213 676.269 300.02 675.411C295.15 673.532 274.927 672.991 268.449 672.728ZM370.991 688.832L369.082 689.914C371.933 691.212 375.89 691.266 379.019 691.829C383.171 692.576 399.144 697.914 401.647 694.863L401.272 694.094C398.316 692.897 374.936 689 370.991 688.832ZM628.553 472.915C628.213 475.087 627.933 477.269 627.715 479.457C626.72 480.955 627.39 481.009 627.57 482.737C629.038 496.846 637.669 498.479 646.838 505.835C647.603 503.976 646.748 502.104 645.813 500.454C642.744 495.037 633.66 474.719 628.553 472.915ZM346.231 791.969C350.896 796.081 355.759 799.996 361.376 802.726C365.151 801.632 370.237 799.986 373.961 799.139L376.32 798.205C364.944 794.338 356.786 794.179 346.231 791.969ZM744.365 405.175C745.179 412.531 745.389 414.721 747.831 421.517C749.612 424.874 756.17 427.944 759.786 428.336L760.593 427.588C760.972 424.531 755.726 420.696 754.265 417.367L755.496 416L755.487 415.671C753.953 413.927 752.712 412.326 750.84 410.953C750.848 412.444 751.614 413.59 752.294 414.961L752.019 415.138C749.751 412.076 746.878 407.819 744.365 405.175ZM382.552 564.915L383.649 562.849C378.627 555.673 372.667 546.79 365.825 541.209C364.094 539.798 361.381 539.728 359.214 539.873L358.645 540.431C360.379 545.275 377.796 562.044 382.552 564.915ZM537.18 505.769C535.045 512.35 542.531 521.755 545.222 527.641C548.674 528.813 557.297 532.006 560.311 532.07C560.429 528.449 540.78 508.126 537.18 505.769ZM897.619 187.99C902.619 187.695 905.445 184.82 910.08 182.512C908.271 181.243 906.594 180.042 904.841 178.698C900.258 177.051 879.181 177.78 874.29 178.847L873.692 179.366C875.803 180.744 893.757 186.479 897.619 187.99ZM246.919 776.853L247.168 778.241C270.427 779.711 293.234 780.06 316.325 783.799C322.92 784.866 355.219 791.952 358.698 791.412C359.355 790.697 359.271 790.97 359.564 790.125C358.632 789.338 320.67 781.765 316.265 781.023C299.076 778.275 281.715 776.742 264.311 776.434C259.518 776.386 251.456 776.214 246.919 776.853Z"/><path fill="#C9C8CB" d="M122.787 882.618L123.583 883.437C123.832 885.335 123.002 899.352 122.332 900.796L122.454 901.488C121.521 898.257 122.252 886.224 122.787 882.618Z"/><path fill="#F8F7F7" d="M195.884 654.412C197.079 651.391 198.125 648.411 199.759 645.61L200.934 646.827C199.689 649.683 198.065 652.3 196.49 654.991L195.884 654.412Z"/><path fill="#88888D" d="M196.49 654.991C195.98 656.224 194.615 659.233 193.532 659.951C193.649 658.013 194.921 656.167 195.884 654.412L196.49 654.991Z"/><path fill="#2D2E30" d="M541.041 364.206C543.757 365.23 546.846 367.79 548.502 370.076C549.724 369.849 549.675 369.579 550.786 370.51C558.788 377.21 567.527 386.16 574.514 393.794C601.575 423.405 625.286 455.913 645.215 490.726C649.775 498.787 653.236 506.67 657.503 514.719C655.087 512.337 654.649 511.524 652.882 508.666L652.034 510.045C650.256 509.827 647.705 507.394 646.838 505.835C647.603 503.976 646.748 502.104 645.813 500.454C642.744 495.037 633.66 474.719 628.553 472.915C628.213 475.087 627.933 477.269 627.715 479.457L627.023 479.581C626.24 478.388 626.181 476.217 626.01 474.691C625.06 473.609 625.352 473.999 624.76 472.638C624.931 470.147 624.983 467.47 625.079 464.959C621.153 458.791 613.633 446.746 608.473 442.211C607.411 450.288 607.746 455.779 607.995 463.92L606.911 463.918C605.862 459.503 606.605 444.192 606.962 439.374C603.045 434.649 594.511 422.216 590.279 419.116C589.006 418.903 589.066 418.877 587.805 419.1C586.594 421.635 587.841 431.244 588.122 434.498L586.559 434.5C586.121 411.315 585.314 411.384 570.597 395.454L567.71 396.144L566.955 395.124C566.356 396.801 566.478 397.003 566.546 398.752C561.962 384.948 559.514 382.447 548.666 372.324C546.411 370.219 542.861 366.723 541.041 364.206Z"/><path fill="#F8F7F7" d="M548.502 370.076C549.724 369.849 549.675 369.579 550.786 370.51C558.788 377.21 567.527 386.16 574.514 393.794C601.575 423.405 625.286 455.913 645.215 490.726C649.775 498.787 653.236 506.67 657.503 514.719C655.087 512.337 654.649 511.524 652.882 508.666C629.527 462.288 587.916 404.568 548.502 370.076Z"/><path fill="#F8F7F7" d="M626.057 466.333C627.215 468.002 628.907 470.054 629.266 471.959L628.553 472.915C628.213 475.087 627.933 477.269 627.715 479.457L627.023 479.581C626.24 478.388 626.181 476.217 626.01 474.691C625.933 472.062 626.03 469.001 626.057 466.333Z"/><path fill="#F8F7F7" d="M564.7 388.777C566.66 390.94 568.783 393.186 570.597 395.454L567.71 396.144L566.955 395.124C566.215 392.645 565.702 391.159 564.7 388.777Z"/><path fill="#3C3D40" d="M652.421 309.473L653.291 308.423L654.533 308.937L654.833 308.6C657.819 310.825 672.371 322.462 673.997 324.974C675.704 325.485 677.559 326.602 677.314 328.594C679.785 331.804 681.436 332.327 681.093 335.714C683.545 335.979 681.695 335.077 683.769 335.338L684.737 334.819C686.843 335.825 691.874 341.362 693.726 343.255C704.593 354.416 715.191 365.834 725.512 377.501C730.689 383.35 738.377 392.767 743.734 398.009C748.041 399.996 749.271 403.029 752.377 404.838C754.801 407.646 757.856 411.233 759.348 414.637L758.426 414.36C757.34 414.027 756.924 413.845 755.884 413.327L755.309 413.652L755.487 415.671C753.953 413.927 752.712 412.326 750.84 410.953C750.848 412.444 751.614 413.59 752.294 414.961L752.019 415.138C749.751 412.076 746.878 407.819 744.365 405.175C745.179 412.531 745.389 414.721 747.831 421.517L746.199 422.109C742.431 410.875 744.352 403.832 735.295 394.641C732.539 391.844 731.726 390.377 728.113 387.715C728.275 390.44 728.477 393.162 728.719 395.881L727.71 397.568C727.154 392.613 726.233 388.475 725.934 383.287C723.682 380 712.558 366.439 709.016 365.396L707.646 366.261C706.686 365.16 707.236 365.608 705.838 365.101C705.333 363.787 705.143 362.51 704.849 361.123C701.733 357.929 687.149 341.063 684.327 340.645L683.582 341.747C682.222 340.773 679.126 336.153 677.76 334.418L676.671 334.574C676.545 334.485 672.436 328.75 671.45 327.733C665.379 321.472 659.072 315.097 652.421 309.473Z"/><path fill="#F8F7F7" d="M684.737 334.819C686.843 335.825 691.874 341.362 693.726 343.255C704.593 354.416 715.191 365.834 725.512 377.501C730.689 383.35 738.377 392.767 743.734 398.009C744.892 402.017 749.553 404.831 752.955 409.289C748.97 406.508 746.064 404.023 743.074 400.171C724.908 376.765 703.977 356.831 683.769 335.338L684.737 334.819Z"/><path fill="#F8F7F7" d="M654.833 308.6C657.819 310.825 672.371 322.462 673.997 324.974L673.843 326.101C673.444 325.939 655.878 310.354 654.533 308.937L654.833 308.6Z"/><path fill="#3C3D40" d="M770.488 69.9609C774.148 68.8327 776.067 68.2734 779.995 68.814C780.09 69.0897 780.053 68.8645 779.898 69.7463C778.954 70.1337 778.004 70.5048 777.047 70.8595C774.886 72.179 770.388 74.9617 768.535 76.5837C766.848 77.8792 763.232 80.5156 761.253 81.0211L760.308 80.5273C754.386 78.99 750.898 81.478 745.687 84.402C698.179 111.062 668.373 136.972 644.148 186.624C643.227 185.163 643.264 185.171 642.777 183.498L643.323 182.69C645.012 176.703 646.568 171.97 649.211 166.347C650.499 168.417 649.872 168.797 650.643 170.526C652.101 168.133 653.112 166.472 654.315 163.899C658.139 157.214 662.574 152.018 665.774 144.994L665.649 144.996C666.223 141.795 666.967 141.7 667.847 138.491C672.651 137.107 669.083 138.401 671.658 138.565C673.614 136.557 675.518 134.499 677.368 132.394L689.014 120.732C693.506 116.529 699.321 112.114 704.164 108.151C704.773 107.72 705.385 107.261 705.989 106.819C707.456 105.932 714.081 101.371 714.975 100.558C717.631 98.1434 737.503 86.4747 737.795 85.7179L735.447 84.5643L735.68 83.9994C736.888 83.3091 737.569 82.7274 738.937 82.821C740.821 83.4248 743.615 83.9212 745.154 82.3156L744.977 81.4867L743.139 80.4761C747.164 77.4661 749.737 80.186 752.091 78.426L752.181 77.4557L751.921 76.7239C754.63 74.4901 766.48 70.7768 770.216 69.9955L770.488 69.9609Z"/><path fill="#F8F7F7" d="M770.216 69.9955C768.849 72.479 756.808 76.6532 753.469 77.881C753.101 77.7721 752.489 77.6255 752.181 77.4557L751.921 76.7239C754.63 74.4901 766.48 70.7768 770.216 69.9955Z"/><path fill="#F8F7F7" d="M649.211 166.347C650.499 168.417 649.872 168.797 650.643 170.526C649.255 173.038 644.995 181.096 643.323 182.69C645.012 176.703 646.568 171.97 649.211 166.347Z"/><path fill="#2D2E30" d="M770.488 69.9609C774.148 68.8327 776.067 68.2734 779.995 68.814C780.09 69.0897 780.053 68.8645 779.898 69.7463C778.954 70.1337 778.004 70.5048 777.047 70.8595C775.326 71.3112 773.558 71.7359 771.888 72.3306C771.368 71.7367 770.883 70.6935 770.488 69.9609Z"/><path fill="#F8F7F7" d="M771.888 72.3306C773.558 71.7359 775.326 71.3112 777.047 70.8595C774.886 72.179 770.388 74.9617 768.535 76.5837C767.604 75.9309 767.598 75.9612 766.902 75.0734C768.05 73.5196 769.848 73.1795 771.888 72.3306Z"/><path fill="#2D2E30" d="M881.158 175.193C895.991 173.645 911.731 173.727 926.6 174.553L924.594 175.683L926.277 176.304L924.548 177.232C917.652 177.134 913.506 176.951 906.577 177.649C905.157 177.965 905.686 177.565 904.841 178.698C900.258 177.051 879.181 177.78 874.29 178.847L873.692 179.366C875.803 180.744 893.757 186.479 897.619 187.99L897.517 189.396C888.596 186.781 877.974 181.634 869.253 180.07C863.786 179.089 846.77 181.443 841.212 182.947C849.818 183.982 846.404 185.547 852.83 187.659C862.733 190.914 873.024 193.726 883.016 196.786L882.67 198.273C881.776 198.742 882.192 198.738 881.454 198.551C867.016 194.303 847.919 186.859 833.295 184.214C831.68 183.922 815.016 187.152 813.102 189.038C811.302 190.661 808.746 190.05 806.389 189.778L806.825 188.811L806.315 187.657L806.837 187.219C808.77 186.598 809.83 186.91 811.53 185.686L811.236 184.766C814.001 182.803 845.48 178.449 849.652 178.257L849.796 179.266C851.924 178.926 854.187 178.687 856.337 178.421L856.848 177.334C860.107 176.361 871.853 175.249 875.263 175.632L876.86 176.796C878.73 176.811 880.59 176.609 882.454 176.447L881.158 175.193Z"/><path fill="#F8F7F7" d="M881.158 175.193C895.991 173.645 911.731 173.727 926.6 174.553L924.594 175.683C914.643 175.101 904.937 175.597 895.001 175.935C891.456 176.056 885.824 176.551 882.454 176.447L881.158 175.193Z"/><path fill="#F8F7F7" d="M811.236 184.766C814.001 182.803 845.48 178.449 849.652 178.257L849.796 179.266C837.789 181.231 825.853 183.176 813.932 185.662C812.712 185.916 812.214 185.363 811.236 184.766Z"/><path fill="#F8F7F7" d="M856.848 177.334C860.107 176.361 871.853 175.249 875.263 175.632L876.86 176.796C871.783 177.212 861.096 178.416 856.337 178.421L856.848 177.334Z"/><path fill="#2D2E30" d="M478.793 116.148C479.547 115.13 479.254 115.406 480.221 114.711L480.944 115.47L481.731 115.553C481.489 117.1 479.931 119.382 478.988 120.686C477.084 123.766 473.535 130.206 471.675 132.878C470.676 132.049 469.915 131.519 468.867 130.774L465.735 133.9C428.132 172.732 387.74 235.034 386.444 291.501C386.415 292.751 386.578 294.77 386.682 296.066C385.775 298.313 385.627 298.684 384.086 300.535L383.522 301.575C382.208 299.439 381.184 289.116 382.801 286.92L384.228 286.235C384.909 283.689 384.967 279.482 385.529 276.272C386.347 273.536 387.018 270.005 387.608 267.187C394.927 232.235 409.778 203.153 429.918 173.84C433.925 167.918 438.157 162.152 442.606 156.555C444.586 154.088 454.885 141.763 455.816 139.91L454.47 138.531L454.999 137.692C455.448 137.869 455.742 138.019 456.253 138.05C460.175 138.29 475.238 119.824 478.793 116.148Z"/><path fill="#F8F7F7" d="M478.055 120.008L478.988 120.686C477.084 123.766 473.535 130.206 471.675 132.878C470.676 132.049 469.915 131.519 468.867 130.774C471.695 128.222 475.695 123.145 478.055 120.008Z"/><path fill="#F8F7F7" d="M384.228 286.235C384.787 289.797 384.333 296.729 384.086 300.535L383.522 301.575C382.208 299.439 381.184 289.116 382.801 286.92L384.228 286.235Z"/><path fill="#ABB0B3" d="M480.944 115.47L481.731 115.553C481.489 117.1 479.931 119.382 478.988 120.686L478.055 120.008C479.391 118.247 479.861 117.42 480.944 115.47Z"/><path fill="#2D2E30" d="M336.593 209.811C337.674 207.633 344.215 201.216 346.387 199.888L347.953 200.214L347.596 201.294C346.818 203.854 343.722 210.615 341.967 212.532C340.856 212.488 339.821 212.144 339.112 213.141C305.826 259.872 266.811 324.14 259.172 381.04L257.942 381.405C266.368 315.902 302.685 264.381 337.366 210.705L336.593 209.811Z"/><path fill="#F8F7F7" d="M347.596 201.294C346.818 203.854 343.722 210.615 341.967 212.532C341.581 212.416 340.812 212.026 340.415 211.841C340.412 209.582 345.896 203.392 347.596 201.294Z"/><path fill="#ABB0B3" d="M336.593 209.811C337.674 207.633 344.215 201.216 346.387 199.888C345.656 201.114 338.365 209.927 337.366 210.705L336.593 209.811Z"/><path fill="#2D2E30" d="M198.658 305.106L199.814 307.325C199.037 309.346 197.953 311.573 197.957 313.663C194.702 318.128 188.288 337.653 185.882 343.785C173.414 375.551 164.938 406.703 161.885 440.714C159.682 465.256 160.808 480.271 163.942 504.573L161.767 503.539C160.288 498.586 159.518 484.722 159.157 479.307C156.003 431.962 167.281 385.297 184.43 341.458C188.68 330.595 193.48 315.65 198.658 305.106Z"/><path fill="#2D2E30" fill-opacity="0.98823529" d="M774.532 279.05C778.524 279.466 788.249 281.983 790.67 281.847L791.437 280.929C793.347 283.345 795.809 283.241 798.975 283.707C809.461 286.506 821.105 288.791 831.363 291.787C843.671 295.382 856.725 299.607 868.887 303.65L867.872 304.147C870.674 306.397 878.414 307.135 878.942 309.28L878.456 309.144C873.581 307.73 859.231 301.233 855.746 302.3L855.602 303.004C858.31 306.986 866.461 311.994 870.615 315.168L868.117 315.992C856.315 307.67 849.757 298.382 835.724 294.96C832.89 294.269 830.951 293.151 827.841 293.177L827.201 294.047L826.828 295.261L825.991 295.36C824.954 295.492 825.353 295.383 824.597 295.671C816.165 288.559 806.377 286.566 795.5 285.119C792.745 284.324 790.817 284.006 788.026 283.536C790.433 285.271 793.153 287.423 795.787 288.674C796.353 288.398 796.52 288.394 796.961 287.983C796.706 290.561 804.618 296.766 806.731 299.011C814.114 306.855 822.51 314.147 830.013 321.819C828.874 322.248 828.706 322.308 827.512 322.511L826.463 321.632C813.988 309.736 799.952 290.303 784.4 282.806C782.463 281.873 772.714 280.327 769.848 279.821C771.408 279.552 772.969 279.294 774.532 279.05Z"/><path fill="#3C3D40" d="M627.283 90.2495C628.292 89.3139 628.989 88.4073 630.295 88.193C630.017 90.0899 629.678 90.6598 630.094 92.3852C629.735 94.0477 629.348 94.3537 628.314 95.6731C624.786 96.3134 615.569 105.093 614.342 108.148L614.739 108.841C617.323 109.062 619.719 107.577 622.15 106.446L622.557 108.262C616.163 112.163 612.153 114.72 605.342 117.779C606.189 115.848 606.317 116.309 606.109 114.491L604.876 113.951L610.446 107.672C610.388 105.966 610.477 105.688 609.886 104.059C609.119 103.043 609.41 103.594 609.004 102.409C610.536 100.697 613.99 98.0957 616.22 97.7344L617.311 97.4211C618.764 95.3011 624.947 91.665 627.283 90.2495Z"/><path fill="#F8F7F7" d="M609.886 104.059C609.119 103.043 609.41 103.594 609.004 102.409C610.536 100.697 613.99 98.0957 616.22 97.7344C617.556 98.0796 618.317 97.9017 619.416 98.6111L610.446 107.672C610.388 105.966 610.477 105.688 609.886 104.059Z"/><path fill="#F8F7F7" d="M627.283 90.2495C626.87 92.1215 621.132 97.2206 619.416 98.6111C618.317 97.9017 617.556 98.0796 616.22 97.7344L617.311 97.4211C618.764 95.3011 624.947 91.665 627.283 90.2495Z"/><path fill="#F8F7F7" d="M613.25 108.386C614.063 109.602 613.849 108.95 613.912 110.414C612.624 112.227 610.24 113.412 608.271 114.628L607.849 114.261C608.637 112.605 611.791 109.811 613.25 108.386Z"/><path fill="#F8F7F7" d="M531.286 164.961C535.56 156.111 555.885 137.398 564.139 129.816L564.989 130.099L565.757 131.302L565.824 132.346C560.457 138.153 554.964 144.014 549.721 149.929C546.409 153.666 543.338 158.496 539.839 162.05C538.855 161.968 539.283 162.17 538.589 161.376L539.986 157.963C541.117 156.582 542.301 155.302 542.418 153.627C540.952 154.053 540.168 155.629 539.201 156.978C536.253 160.305 535.141 162.709 531.286 164.961Z"/><path fill="#F8F7F7" d="M502.443 469.364C504.464 470.669 506.853 472.606 508.731 474.139C514.409 478.753 519.926 483.562 525.273 488.557C530.732 493.708 572.097 535.167 572.497 539.099C568.089 535.595 562.009 527.721 557.817 523.34C550.694 515.897 543.483 508.306 536.053 501.172C529.093 494.528 521.885 488.149 514.444 482.049C511.699 479.765 503.541 473.303 501.67 471.243L502.443 469.364Z"/><path fill="#3C3D40" d="M813.102 189.038C813.642 190.647 813.691 190.816 815.42 191.548C830.467 197.914 845.768 203.125 860.67 209.897C859.278 210.929 859.543 211.066 858.028 211.239C853.461 208.995 843.537 205.18 838.468 203.246C829.393 199.783 814.137 193.096 804.966 191.274L806.389 189.778C808.746 190.05 811.302 190.661 813.102 189.038Z"/><path fill="#F8F7F7" d="M551.836 620.232C547.402 618.681 540.203 614.83 535.883 612.602C524.591 606.741 513.206 601.017 502.424 594.237C499.073 592.13 492.731 590.43 490.757 586.922L491.237 586.493C495.863 587.324 512.415 598.073 517.715 600.899C527.354 606.04 537.208 611.846 547.023 616.89C548.091 616.197 547.667 616.654 548.09 615.307C549.604 616.054 551.462 617.094 553.058 617.417C552.915 618.468 553.005 619.463 553.093 620.516L552.785 621.004L551.836 620.232Z"/><path fill="#3C3D40" d="M548.09 615.307C549.604 616.054 551.462 617.094 553.058 617.417C552.915 618.468 553.005 619.463 553.093 620.516L552.785 621.004L551.836 620.232C550.949 618.687 548.688 617.783 547.023 616.89C548.091 616.197 547.667 616.654 548.09 615.307Z"/><path fill="#F8F7F7" d="M800.535 282.598C813.76 283.641 892.719 309.614 903.966 316.147C897.341 314.859 889.57 311.078 883.251 308.673C878.475 306.855 873.666 305.381 868.887 303.65C856.725 299.607 843.671 295.382 831.363 291.787C821.105 288.791 809.461 286.506 798.975 283.707L800.535 282.598Z"/><defs><linearGradient id="gradient_0" gradientUnits="userSpaceOnUse" x1="523.17224" y1="174.91666" x2="529.30627" y2="180.56357"><stop offset="0" stop-color="white" stop-opacity="0"/><stop offset="1" stop-color="white" stop-opacity="0.074509807"/></linearGradient></defs><path fill="url(#gradient_0)" d="M530.045 166.427L531.436 167.598L531.656 170.379C532.933 170.927 532.242 170.773 533.893 170.334C531.456 174.394 526.79 182.82 524.319 186.363L523.745 185.933C522.899 187.327 522.197 189.376 521.19 189.714C520.914 188.798 520.665 187.973 520.341 187.074C519.839 187.057 518.604 187.051 518.086 186.963C522.712 179.012 524.608 174.78 530.045 166.427Z"/><defs><linearGradient id="gradient_1" gradientUnits="userSpaceOnUse" x1="653.66168" y1="150.51973" x2="665.30176" y2="151.80995"><stop offset="0" stop-color="white" stop-opacity="0"/><stop offset="1" stop-color="white" stop-opacity="0.039215688"/></linearGradient></defs><path fill="url(#gradient_1)" d="M667.585 138.268L667.847 138.491C666.967 141.7 666.223 141.795 665.649 144.996L665.774 144.994C662.574 152.018 658.139 157.214 654.315 163.899C652.976 163.565 654.69 163.536 652.729 162.332L651.698 162.932L650.876 162.891C654.048 155.516 661.665 143.546 667.585 138.268Z"/><path fill="#2D2E30" d="M161.767 503.539L163.942 504.573C165.374 515.556 168.369 527.013 170.253 537.997L169.549 538.182L168.55 537.438C166.503 534.352 163.051 525.967 162.364 522.238L164.365 520.522C164.434 519.094 162.117 506.635 161.767 503.539Z"/><path fill="#F8F7F7" d="M164.365 520.522C165.782 523.934 168.046 533.628 168.55 537.438C166.503 534.352 163.051 525.967 162.364 522.238L164.365 520.522Z"/><path fill="#616369" d="M650.065 197.583C649.863 184.311 690.261 148.168 699.287 137.396C699.841 136.735 705.565 131.107 706.132 130.816C704.287 134.763 689.415 148.783 685.46 153.087C678.494 160.667 670.69 168.942 663.474 176.404C660.835 179.133 657.798 183.868 655.221 187.024L655.393 188.158L656.554 188.998C654.375 191.767 652 194.663 650.065 197.583Z"/><path fill="#2D2E30" d="M486.862 461.252L485.868 459.681L486.068 458.885C489.773 458.231 493.997 463.504 497.105 464.968C498.726 466.298 499.987 466.894 500.677 468.642C499.826 470.823 499.691 469.612 498.592 471.184C495.908 469.061 494.687 467.689 491.375 467.638L489.746 467.965C489.114 463.73 488.426 463.846 484.962 461.678L486.862 461.252Z"/><path fill="#F8F7F7" d="M486.862 461.252L485.868 459.681L486.068 458.885C489.773 458.231 493.997 463.504 497.105 464.968C496.63 465.472 496.136 465.949 495.644 466.436C491.511 465.258 490.924 462.384 486.862 461.252Z"/><defs><linearGradient id="gradient_2" gradientUnits="userSpaceOnUse" x1="385.58426" y1="695.6499" x2="384.95828" y2="688.34644"><stop offset="0" stop-color="white" stop-opacity="0"/><stop offset="1" stop-color="white" stop-opacity="0.031372551"/></linearGradient></defs><path fill="url(#gradient_2)" d="M370.991 688.832C374.936 689 398.316 692.897 401.272 694.094L401.647 694.863C399.144 697.914 383.171 692.576 379.019 691.829C375.89 691.266 371.933 691.212 369.082 689.914L370.991 688.832Z"/><path fill="#F8F7F7" fill-opacity="0.0078431377" d="M268.449 672.728C274.927 672.991 295.15 673.532 300.02 675.411C300.213 676.269 300.142 675.828 300.227 676.734C298.658 676.959 269.526 675.023 267.637 674.565L268.449 672.728Z"/><path fill="#2D2E30" d="M348.769 245.096L349.628 247.389C343.219 251.585 332.492 259.175 326.84 264.281C325.579 263.336 325.58 263.564 324.878 262.29L325.685 261.444C328.806 260.615 343.765 248.106 348.769 245.096Z"/><path fill="#F8F7F7" fill-opacity="0.43921569" d="M684.799 119.827L685.549 120.159C686.339 119.693 687.03 119.269 687.797 118.767C688.766 119.527 688.665 119.527 689.014 120.732L677.368 132.394C674.555 130.048 677.516 130.212 676.841 127.781C677.753 125.757 682.734 121.017 684.799 119.827Z"/><path fill="#2D2E30" d="M120.197 525.124L121.099 525.383C121.218 527.289 120.497 528.155 120.64 529.992C119.393 535.097 111.708 550.121 108.301 554.505C107.628 553.038 108.137 551.548 108.41 549.819C107.904 548.759 108.016 549.273 107.958 548.308C112.696 547.146 119.715 529.845 120.197 525.124Z"/><path fill="#F8F7F7" d="M386.799 541.785C385.773 543.009 381.121 541.224 379.439 540.695C370.586 537.91 361.616 536.794 352.494 535.406L352.321 535.093C359.9 534.61 379.822 537.886 387.213 540.679L386.799 541.785Z"/><path fill="#616369" d="M651.12 310.523C648.63 308.156 641.856 301.474 639.99 299.107C641.695 299.679 642.162 300.436 643.583 301.724C649 300.35 651.277 304.704 654.833 308.6L654.533 308.937L653.291 308.423L652.421 309.473L652.125 309.412L651.12 310.523Z"/><path fill="#F8F7F7" d="M651.12 310.523C648.63 308.156 641.856 301.474 639.99 299.107C641.695 299.679 642.162 300.436 643.583 301.724C646.333 304.03 649.813 306.769 652.125 309.412L651.12 310.523Z"/><path fill="#F8F7F7" d="M359.564 790.125C362.83 790.059 388.368 796.515 390.703 798.082C386.951 797.769 363.814 793.178 359.972 791.988L359.416 791.291L359.564 790.125Z"/><path fill="#F8F7F7" fill-opacity="0.98431373" d="M478.793 116.148C475.238 119.824 460.175 138.29 456.253 138.05C455.742 138.019 455.448 137.869 454.999 137.692C460.172 132.984 474.044 118.996 478.793 116.148Z"/><path fill="#F8F7F7" d="M793.543 188.991L794.657 188.631C798.973 187.241 802.98 185.243 806.837 187.219L806.315 187.657L806.825 188.811L806.389 189.778L804.966 191.274C802.292 191.404 800.698 191.416 798.054 191.985L797.662 191.33L795.168 190.779L797.326 190.174L793.543 188.991Z"/><path fill="#2D2E30" d="M797.326 190.174C798.9 190.178 804.417 188.242 806.315 187.657L806.825 188.811L806.389 189.778L804.966 191.274C802.292 191.404 800.698 191.416 798.054 191.985L797.662 191.33L795.168 190.779L797.326 190.174Z"/><path fill="#F8F7F7" fill-opacity="0.054901961" d="M539.201 156.978L539.986 157.963L538.589 161.376C535.243 165.274 537.482 165.8 533.893 170.334C532.242 170.773 532.933 170.927 531.656 170.379L531.436 167.598L530.045 166.427L531.286 164.961C535.141 162.709 536.253 160.305 539.201 156.978Z"/><path fill="#F8F7F7" d="M247.168 778.241C236.454 779.751 222.524 778.329 211.988 780.099L211.776 779.694C218.228 779.077 241.342 775.751 246.919 776.853L247.168 778.241Z"/><path fill="#2D2E30" fill-opacity="0.98039216" d="M295.708 378.229C296.625 378.613 297.546 378.927 298.499 379.21L298.432 379.977L296.021 381.66C293.572 381.623 281.652 387.562 278.524 389.006L277.95 388.259C283.806 385.431 289.677 381.318 295.708 378.229Z"/><path fill="#F8F7F7" d="M770.67 276.862C773.079 276.266 790.025 279.369 791.437 280.929L790.67 281.847C788.249 281.983 778.524 279.466 774.532 279.05C772.568 278.689 771.661 278.59 769.836 277.845L770.67 276.862Z"/><defs><linearGradient id="gradient_3" gradientUnits="userSpaceOnUse" x1="565.58911" y1="128.22057" x2="575.51959" y2="122.98569"><stop offset="0" stop-color="white" stop-opacity="0"/><stop offset="1" stop-color="white" stop-opacity="0.035294119"/></linearGradient></defs><path fill="url(#gradient_3)" d="M575.6 120.315L577.498 121.847C575.263 123.857 567.955 131.212 565.757 131.302L564.989 130.099C565.734 127.6 573.159 122.25 575.6 120.315Z"/><path fill="#F8F7F7" fill-opacity="0.011764706" d="M676.841 127.781C677.516 130.212 674.555 130.048 677.368 132.394C675.518 134.499 673.614 136.557 671.658 138.565C669.083 138.401 672.651 137.107 667.847 138.491L667.585 138.268C669.586 134.787 673.911 130.732 676.841 127.781Z"/><path fill="#F8F7F7" d="M112.224 483.008C111.195 487.958 109.451 503.837 107.789 506.362L105.677 507.55C106.247 503.917 106.759 501.407 108 497.945C108.401 493.705 110.528 486.948 112.224 483.008Z"/><path fill="#F8F7F7" d="M719.888 270.72C723.779 270.853 738.139 271.017 740.558 272.805C739.037 273.863 736.906 273.367 735.12 273.146C728.437 272.386 719.437 272.472 713.717 271.574C715.767 270.763 717.665 270.841 719.888 270.72Z"/><path fill="#F8F7F7" d="M765.339 199.091L765.386 199.914C764.245 201.167 744.518 207.569 741.617 208.258L742.018 207.772L742.258 208.171L742.414 207.561C746.375 205.631 761.735 199.443 765.479 198.616L765.339 199.091Z"/><path fill="#F8F7F7" fill-opacity="0.87450981" d="M761.358 276.357C757.913 276.943 747.982 274.81 744.441 273.68L744.75 273.381C748.307 272.418 757.211 274.084 760.83 274.716L761.358 276.357Z"/><path fill="#F8F7F7" d="M623.965 88.6132L624.234 88.7821C620.383 91.9461 608.755 99.0152 603.882 102.121L602.77 100.676C607.241 97.4288 618.72 91.3346 623.965 88.6132Z"/><path fill="#F8F7F7" d="M416.839 698.029C421.131 694.896 426.53 696.209 431.88 696.697L430.667 697.93C428.821 700.019 419.562 698.6 416.839 698.029Z"/><path fill="#2D2E30" d="M473.899 139.751C475.576 138.255 478.04 136.441 479.856 135.015L480.779 137.197C478.445 138.906 471.717 143.919 469.999 145.897C468.479 145.268 468.836 145.673 467.913 144.55L468.722 143.338L469.707 143.615C471.545 142.698 472.521 141.307 473.899 139.751Z"/><path fill="#2D2E30" fill-opacity="0.98039216" d="M408.953 701.993L409.608 701.072C413.55 704.152 420.516 709.732 424.024 713.15L422.32 714.579C418.046 710.007 413.592 706.176 408.953 701.993Z"/><path fill="#F8F7F7" d="M443.88 434.615C446.708 435.407 455.033 438.949 457.277 440.87L456.719 441.987C454.594 442.111 445.642 437.541 443.654 436.057L443.88 434.615Z"/><path fill="#F8F7F7" d="M759.589 84.3773C761.589 82.728 767.479 77.9686 769.868 77.6878L772.398 79.9692C767.862 81.7986 764.236 82.9398 759.589 84.3773Z"/><path fill="#F8F7F7" d="M398.246 423.208C402.348 424.219 409.361 425.83 412.778 427.965L413.471 431.593C409.074 428.381 403.192 425.599 398.246 423.208Z"/><path fill="#F8F7F7" d="M80.5279 696.444C81.9739 699.489 83.0333 708.673 83.5749 712.558C82.1562 709.244 78.7041 701.357 79.2079 697.865L80.5279 696.444Z"/><path fill="#F8F7F7" fill-opacity="0.027450981" d="M431.88 696.697C435.606 696.424 440.155 696.607 443.955 696.659L443.358 698.474C440.374 698.609 433.153 699.182 430.667 697.93L431.88 696.697Z"/><path fill="#C9C8CB" d="M267.637 674.565C263.757 674.19 255.826 673.731 252.618 673.083L252.911 672.811C256.871 672.535 264.673 672.026 268.449 672.728L267.637 674.565Z"/><path fill="#F8F7F7" fill-opacity="0.26666668" d="M575.6 120.315C576.903 118.923 580.945 115.871 582.524 114.777L584.9 115.678C582.489 117.838 579.664 119.843 577.498 121.847L575.6 120.315Z"/><path fill="#C9C8CB" d="M755.496 416C758.77 417.846 767.674 427.983 768.505 431.197C764.808 430.795 760.854 418.243 754.265 417.367L755.496 416Z"/><path fill="#F8F7F7" fill-opacity="0.023529412" d="M329.181 680.106C331.943 680.325 336.135 681.122 338.915 681.672C340.828 682.05 340.744 682.114 341.435 683.336C338.619 684.583 332.326 682.655 329.654 681.5L329.181 680.106Z"/><path fill="#F8F7F7" fill-opacity="0.42352942" d="M650.876 162.891L651.698 162.932L652.729 162.332C654.69 163.536 652.976 163.565 654.315 163.899C653.112 166.472 652.101 168.133 650.643 170.526C649.872 168.797 650.499 168.417 649.211 166.347C649.705 164.987 650.204 164.162 650.876 162.891Z"/><path fill="#F8F7F7" d="M360.94 687.411L361.51 686.726C363.751 686.83 369.152 687.649 370.991 688.832L369.082 689.914C367.054 690.43 361.705 688.79 359.431 688.204L360.94 687.411Z"/><path fill="#F8F7F7" fill-opacity="0.050980393" d="M234.18 665.955C237.39 664.465 240.905 663.027 244.177 661.622C247.571 666.128 249.891 662.267 252.365 664.28C245.564 664.409 240.879 665.041 234.18 665.955Z"/><path fill="#2D2E30" d="M429.855 700.934L434.004 700.754C435.879 702.225 440.616 704.908 441.493 706.01L441.541 707.605C437.761 705.46 433.693 702.817 429.855 700.934Z"/><path fill="#F8F7F7" fill-opacity="0.28235295" d="M468.867 130.774C469.915 131.519 470.676 132.049 471.675 132.878C471.11 133.817 469.619 136.481 468.937 137.141C466.891 135.913 466.911 135.923 465.735 133.9L468.867 130.774Z"/><path fill="#F8F7F7" d="M220.324 805.002L221.698 804.121C224.191 804.119 230.236 809.932 232.453 811.877C228.754 810.354 222.926 807.38 219.795 804.94L220.324 805.002Z"/><path fill="#F8F7F7" d="M348.736 527.678C351.82 527.059 356.67 525.972 359.712 526.591L360.85 528.386C358.652 530.033 351.392 528.204 348.736 527.678Z"/><path fill="#F8F7F7" d="M383.649 562.849C386.08 565.639 389.412 570.974 391.563 574.202C389.88 572.646 382.976 566.574 382.245 565.114L382.552 564.915L383.649 562.849Z"/><path fill="#F8F7F7" fill-opacity="0.019607844" d="M382.33 286.655C382.498 282.798 382.004 278.635 385.529 276.272C384.967 279.482 384.909 283.689 384.228 286.235L382.801 286.92L382.33 286.655Z"/><path fill="#C9C8CB" d="M453.63 695.99C457.227 695.927 469.654 694.342 471.739 694.724C467.769 696.271 457.098 697.317 452.724 697.758L454.079 696.888L453.63 695.99Z"/><path fill="#F8F7F7" d="M771.352 425.233C772.916 427.454 774.829 433.056 775.296 435.761L774.895 436.141C772.18 432.269 769.342 429.857 771.352 425.233Z"/><path fill="#F8F7F7" fill-opacity="0.66666669" d="M443.955 696.659L453.63 695.99L454.079 696.888L452.724 697.758C448.946 698.273 447.155 698.498 443.358 698.474L443.955 696.659Z"/><path fill="#F8F7F7" fill-opacity="0.070588239" d="M475.616 577.067C478.064 578.396 482.064 580.406 484.305 581.826L483.687 584.067C481.771 583.098 478.147 580.539 475.784 579.199L475.616 577.067Z"/><path fill="#F8F7F7" fill-opacity="0.011764706" d="M760.83 274.716C763.336 275.031 768.958 275.379 770.67 276.862L769.836 277.845C767.375 278.089 763.666 277.277 761.358 276.357L760.83 274.716Z"/><path fill="#F8F7F7" fill-opacity="0.039215688" d="M506.884 224.191L507.102 224.597C507.847 222.284 508.568 222.262 510.595 222.055C510.114 224.49 510.087 227.053 507.453 227.957L506.671 227.57C506.34 226.498 506.331 225.214 506.884 224.191Z"/><path fill="#2D2E30" fill-opacity="0.97254902" d="M202.877 330.15C205.124 325.407 206.439 319.983 208.648 315.542L209.554 317.002C207.992 320.58 205.234 327.572 203.258 330.599L202.877 330.15Z"/><path fill="#F8F7F7" d="M417.92 425.116C420.203 425.828 426.795 427.754 428.49 428.837L428.825 430.421C425.103 429.182 420.708 427.371 416.985 425.952L417.92 425.116Z"/><path fill="#F8F7F7" fill-opacity="0.027450981" d="M677.314 328.594C679.608 329.029 683.637 332.883 684.737 334.819L683.769 335.338C681.695 335.077 683.545 335.979 681.093 335.714C681.436 332.327 679.785 331.804 677.314 328.594Z"/><path fill="#F8F7F7" d="M475.784 579.199C473.744 578.32 469.236 576.884 468.593 574.789C471.216 573.907 473.53 575.574 475.616 577.067L475.784 579.199Z"/><path fill="#F8F7F7" d="M461.045 689.778C463.256 690.177 466.172 690.454 467.963 691.615C466.506 692.911 461.267 692.646 459.193 692.462L461.045 689.778Z"/><path fill="#F8F7F7" fill-opacity="0.98431373" d="M788.026 283.536C790.817 284.006 792.745 284.324 795.5 285.119L796.961 287.983C796.52 288.394 796.353 288.398 795.787 288.674C793.153 287.423 790.433 285.271 788.026 283.536Z"/><path fill="#C9C8CB" fill-opacity="0.98431373" d="M199.814 307.325C200.624 305.144 201.164 303.708 202.188 301.632C201.453 305.601 200.727 310.094 199.731 313.963L197.957 313.663C197.953 311.573 199.037 309.346 199.814 307.325Z"/><path fill="#F8F7F7" fill-opacity="0.043137256" d="M793.543 188.991L797.326 190.174L795.168 190.779L788.867 192.3L787.106 191.242C789.16 190.286 791.373 189.644 793.543 188.991Z"/><path fill="#F8F7F7" fill-opacity="0.98823529" d="M468.722 143.338C470.033 141.001 471.458 138.838 472.905 136.587L473.899 139.751C472.521 141.307 471.545 142.698 469.707 143.615L468.722 143.338Z"/><path fill="#F8F7F7" d="M484.305 581.826C486.054 582.703 487.856 583.312 488.759 584.97L488.543 585.868C486.382 586.096 485.602 585.361 483.687 584.067L484.305 581.826Z"/><path fill="#F8F7F7" fill-opacity="0.0078431377" d="M440.928 560.441C443.645 560.582 446.891 561.832 448.621 563.996C445.202 564.703 442.853 563.175 440.928 560.441Z"/><path fill="#F8F7F7" fill-opacity="0.062745102" d="M482.614 120.361C483.917 118.49 484.464 116.924 486.208 115.753L485.773 116.419L486.019 117.019C485.433 119.107 484.509 122.008 484.276 124.086C484.12 121.643 484.016 121.941 482.614 120.361Z"/><path fill="#F8F7F7" fill-opacity="0.019607844" d="M791.437 280.929C794.634 280.888 797.438 281.796 800.535 282.598L798.975 283.707C795.809 283.241 793.347 283.345 791.437 280.929Z"/><path fill="#F8F7F7" fill-opacity="0.039215688" d="M765.479 198.616C768.058 197.557 769.379 196.789 772.175 196.742L772.529 197.234C770.684 199.169 768.847 199.34 766.257 199.672L765.339 199.091L765.479 198.616Z"/><path fill="#F8F7F7" fill-opacity="0.87058824" d="M926.6 174.553C930.071 174.491 933.543 174.516 937.013 174.63C932.254 175.856 929.985 175.55 926.277 176.304L924.594 175.683L926.6 174.553Z"/><path fill="#F8F7F7" fill-opacity="0.027450981" d="M535.538 615.747C537.325 616.533 539.006 617.207 540.678 618.228C538.183 617.996 533.382 617.386 531.067 617.352C532.983 615.458 533.078 615.8 535.538 615.747Z"/><path fill="#F8F7F7" fill-opacity="0.062745102" d="M702.969 104.752L705.021 105.315C705.342 105.969 705.403 106.379 705.989 106.819C705.385 107.261 704.773 107.72 704.164 108.151C702.679 106.719 704.021 109.159 701.376 107.781L700.983 106.399L702.969 104.752Z"/><path fill="#F8F7F7" fill-opacity="0.023529412" d="M428.49 428.837C431.228 429.681 433.897 430.321 436.239 431.975L436.318 432.471C433.463 432.275 431.451 431.417 428.825 430.421L428.49 428.837Z"/><path fill="#F8F7F7" fill-opacity="0.078431375" d="M273.718 694.942C276.386 697.131 276.672 697.351 278.725 700.221C275.735 699.046 274.514 698.644 271.847 696.676C272.542 695.478 272.428 695.827 273.718 694.942Z"/><path fill="#2D2E30" fill-opacity="0.9254902" d="M282.411 784.469L282.63 783.605C285.051 785.401 287.794 788.446 289.951 790.686L288.357 791.103L282.411 784.469Z"/><path fill="#F8F7F7" d="M424.238 454.482C425.492 455.932 427.576 460.244 428.581 462.179C426.47 460.135 424.325 458.205 422.627 455.806L424.238 454.482Z"/><path fill="#F8F7F7" fill-opacity="0.98431373" d="M113.457 487.301C113.811 489.729 114.717 494.292 114.275 496.391L113.213 497.004L112.905 497.702C112.417 495.361 113.185 489.929 113.457 487.301Z"/><path fill="#F8F7F7" fill-opacity="0.0078431377" d="M458.863 568.914C461.3 569.3 463.187 569.314 463.246 572.02C460.601 571.753 459.626 571.468 458.863 568.914Z"/><path fill="#F8F7F7" fill-opacity="0.28627452" d="M881.158 175.193L882.454 176.447C880.59 176.609 878.73 176.811 876.86 176.796L875.263 175.632L881.158 175.193Z"/><path fill="#ABB0B3" fill-opacity="0.98431373" d="M416.985 425.952C415.175 425.454 413.36 424.795 411.579 424.181L411.153 423.545L410.414 423.485C412.716 423.437 415.622 424.465 417.92 425.116L416.985 425.952Z"/><path fill="#F8F7F7" fill-opacity="0.19215687" d="M856.848 177.334L856.337 178.421C854.187 178.687 851.924 178.926 849.796 179.266L849.652 178.257C852.636 177.561 853.873 177.502 856.848 177.334Z"/><path fill="#F8F7F7" fill-opacity="0.027450981" d="M279.306 700.034C281.584 700.958 282.346 701.803 283.979 703.603C280.996 703.461 280.13 702.7 279.306 700.034Z"/><path fill="#F8F7F7" fill-opacity="0.52156866" d="M539.201 156.978C540.168 155.629 540.952 154.053 542.418 153.627C542.301 155.302 541.117 156.582 539.986 157.963L539.201 156.978Z"/></svg>