<?xml version="1.0" encoding="utf-8" ?><svg xmlns="http://www.w3.org/2000/svg" xmlns:xlink="http://www.w3.org/1999/xlink" width="1024" height="1024" viewBox="0 0 1024 1024"><path fill="#272526" d="M601.684 210.126C587.658 124.523 653.816 61.8644 733.005 48.5894C739.635 47.4781 745.383 47.2972 752.068 47.5878C735.235 62.319 727.135 77.7932 724.453 99.8945C718.266 150.878 680.437 194.671 631.429 209.508C621.938 212.381 615.042 212.938 605.477 214.666C599.212 225.145 591.964 235.48 586.863 246.41C620.065 232.193 654.9 220.141 690.842 215.505C709.348 213.119 708.745 213.707 724.177 203.238C729.939 199.308 735.806 195.532 741.771 191.916C743.121 163.165 758.846 136.435 779.722 117.225C817.088 82.8433 886.783 66.0157 934.629 86.2992C903.889 99.5759 901.471 108.554 886.62 135.858C870.022 166.374 835.415 191.354 801.01 196.011C785.278 198.524 762.697 199.912 747.198 196.157C741.114 200.128 730.118 206.968 724.949 211.391C744.317 211.44 760.923 211.609 780.333 213.833C791.184 215.076 800.217 217.578 809.98 218.896C832.673 206.798 852.199 202.087 877.22 209.919C906.751 219.162 928.76 238.073 948.066 261.468C954.539 269.312 965.217 280.93 973.742 286.21C948.9 293.906 943.703 293.333 917.561 290.993C910.264 290.34 900.109 290.838 892.211 290.014C877.817 288.512 863.079 282.397 850.326 275.661C829.91 264.877 814.105 245.971 804.573 225.158C771.592 224.389 738.62 227.01 706.175 232.978C701.192 233.935 689.326 236.367 684.834 238.184L684.565 239.015C685.83 240.312 689.363 240.454 691.504 241.028C701.84 243.797 712.713 247.19 722.046 252.462C734.962 248.803 753.712 256.875 764.74 262.905C790.498 276.988 804.094 299.96 817.184 325.089C821.936 334.212 825.598 342.43 832.527 350.169C825.141 349.525 817.832 348.189 810.481 347.152C804.535 346.312 797.637 345.873 791.843 344.6C770.9 339.965 752.069 328.554 738.267 312.134C720.623 291.003 719.721 274.07 707.783 251.432C701.776 249.333 673.121 241.943 667.724 243.723C628.383 256.699 590.544 279.36 556.111 302.269C550.014 306.325 541.533 311.682 536.769 316.386C549.668 317.487 560.073 318.436 572.849 320.759C574.335 319.769 576.955 317.877 578.51 317.299C582.739 314.459 588.068 312.065 592.74 310.069C625.626 299.086 656.348 307.515 686.801 321.824C706.266 330.97 723.614 346.602 739.684 360.525C755.7 374.649 769.79 392.009 790.216 399.235C761.553 407.116 742.355 408.2 712.366 407.544C680.225 406.84 650.825 402.859 622.12 386.998C599.557 374.531 584.893 357.872 570.915 336.653C568.635 333.192 565.561 329.834 563.202 326.219C550.987 324.003 540.143 323.023 527.684 323.512C517.186 331.111 507.159 341.176 497.974 350.267C473.822 374.173 451.889 400.146 432.985 428.397C428.589 434.968 422.828 442.534 419.43 449.574C427.04 447.405 434.851 445.087 442.577 443.409C455.387 440.626 468.379 438.941 481.297 436.889C512.826 410.562 544.066 395.789 585.951 400.05C628.774 404.407 664.055 422.584 696.775 449.57C710.447 460.846 724.943 472.769 742.334 477.562C725.108 484.514 704.544 491.175 686.177 493.801C679.365 494.774 672.067 493.299 665.249 493.867C656.452 495.378 648.26 498.095 639.419 499.614C606.34 505.297 576.415 501.629 545.534 488.987C517.284 477.422 503.521 462.141 480.796 443.525C466.562 445.674 453.894 447.877 439.876 451.234C431.175 453.318 421.069 456.76 412.587 458.486C404.172 473.367 395.54 486.714 388.337 502.34C405.346 497.307 420.633 494.489 438.374 494.181C441.072 494.135 444.543 492.894 447.234 492.483C498.679 480.515 557.292 500.313 581.696 549.448C582.983 552.039 586.372 558.508 585.896 561.234C584.203 561.519 583.69 560.224 583.197 560.278C578.421 560.804 574.097 560.722 569.322 560.58C545.103 559.856 520.595 554.237 498.602 544.05C481.164 535.825 464.917 521.43 450.277 509.038C446.94 506.214 443.343 503.668 440.072 500.876C424.153 502.085 397.254 505.101 382.548 511.925C371.422 534.493 359.11 560.448 349.721 583.826C368.326 584.672 383.245 584.144 402.107 587.933C417.26 576.508 445.859 565.409 464.941 563.905C508.171 560.497 553.761 577.289 590.376 599.267C605.069 608.086 617.178 618.183 634.604 621.444C641.325 622.847 644.721 623.798 651.825 623.37C576.932 677.09 460.484 691.466 401.813 606.656C398.881 602.417 396.071 598.365 394.193 593.531C379.839 591.752 361.876 591.222 347.1 590.384C334.804 618.114 324.2 646.952 312.021 674.776C310.102 679.162 308.164 684.051 306.594 688.57C318.381 688.09 326.057 688.556 337.475 688.623L337.88 688.316C338.351 686.765 338.501 686.242 340.202 685.531C365.128 675.118 396.562 674.466 421.955 683.239C436.869 688.392 450.425 696.461 462.566 706.183C467.445 710.175 475.577 717.286 480.819 720.126C450.894 736.76 418.959 742.112 385.634 732.956C366.601 727.727 340.916 711.032 330.777 694.352C324.102 694.023 310.113 695.344 302.838 695.677C301.685 698.856 299.307 705.724 297.742 708.429C289.235 729.608 277.356 753.018 266.78 773.316C265.097 776.546 260.017 785.843 258.179 788.502C256.958 792.031 248.276 804.923 245.763 809.809C252.691 808.255 260.663 806.919 267.728 805.515C301.919 768.97 347.824 757.117 396.534 765.078C424.637 769.671 455.499 783.722 483.982 771.839C475.867 779.128 475.616 783.549 469.993 791.77C427.496 853.898 325.7 863.361 272.933 811.969C262.229 814.346 251.503 816.625 240.757 818.805C231.358 839.811 210.086 865.679 195.703 883.934C187.788 893.979 177.546 905.103 168.237 913.88C144.019 936.716 115.252 955.622 84.1844 967.709C74.419 971.493 63.9377 974.213 53.8676 977.081C99.3691 938.559 138.397 893.222 170.001 842.703C172.943 838.001 182.174 824.279 182.994 819.523C186.494 799.229 187.695 774.766 185.829 754.249C172.45 743.347 162.14 730.825 152.511 716.799C131.506 686.202 127.188 649.3 131.564 613.304C132.872 602.548 135.596 588.683 135.751 578.252C135.941 565.546 130.702 547.978 123.569 537.355C126.115 538.44 128.966 539.367 131.491 540.506C167.933 556.945 194.106 583.474 208.539 620.886C222.464 656.981 224.163 689.286 209.112 724.976C205.681 732.357 199.859 745.078 194.157 750.786C193.664 754.009 193.795 759.694 193.904 763.115C194.36 777.364 192.884 791.268 192.17 805.461C197.514 795.411 203.018 785.448 208.68 775.574C209.349 774.405 213.765 766.521 214.167 766.02C219.98 754.846 225.337 742.449 231.363 731.608C235.298 722.511 241.172 711.6 245.551 702.173C254.122 683.669 262.31 664.99 270.111 646.149C266.815 635.2 260.884 621.383 257.005 610.398C254.586 603.548 251.044 592.694 248.387 586.575C241.832 582.32 235.804 578.273 229.455 573.863C196.27 550.817 177.051 518.402 171.058 478.162C164.383 433.337 178.511 376.258 205.265 339.602C205.741 361.377 207.537 377.936 221.621 395.946C226.219 401.825 232.269 408.077 236.592 413.928C245.499 425.984 252.8 440.292 258.689 454.029C271.082 482.937 273.809 517.648 266.35 548.18C263.761 558.779 258.542 570.59 254.239 580.828C260.209 599.098 267.955 619.045 274.735 637.213C277.201 630.897 280.707 623.817 283.524 617.486C290.176 602.347 296.982 587.276 303.941 572.275C308.775 561.841 314.275 550.769 318.652 540.211C316.105 533.466 312.929 514.609 310.066 510.755L308.979 511.417C307.025 511.029 300.471 503.727 298.66 501.759C279.227 480.369 267.237 453.266 264.48 424.499C262.885 408.926 264.796 387.774 272.871 373.948C275.696 369.111 281.616 362.122 285.329 357.583C285.398 359.752 285.391 361.669 285.343 363.84L286.687 364.436C288.029 365.216 294.922 377.531 296.261 379.606C313.717 406.687 320.038 441.416 317.755 473.274C317.39 478.356 314.155 496.247 314.424 499.198C315.056 506.123 320.698 523.916 323.172 530.852C338.284 504.433 350.865 476.347 367.685 450.741C368.623 449.312 372.023 443.589 372.002 442.121C371.748 424.46 369.351 406.625 366.796 389.166C362.554 387.039 358.474 384.603 354.589 381.878C322.922 359.598 301.57 325.496 295.36 287.277C287.427 240.742 298.609 184.204 325.922 145.356C326.946 166.377 336.48 190.848 350.642 205.948C372.348 229.09 385.834 248.07 392.582 280.232C398.878 310.239 392.051 337.486 381.119 365.455C378.861 371.231 374.933 378.749 373.656 384.928C373.456 391.082 376.003 402.344 376.83 409.076C377.774 416.759 378.527 424.736 379.52 432.351C383.114 425.918 390.3 416.216 394.809 410.327C406.786 394.685 419.598 379.035 432.372 364.037C432.654 359.61 433.513 353.916 433.949 349.319C435.218 337.165 436.091 324.973 436.563 312.762C414.217 287.489 406.278 260.066 407.076 226.677C408.455 168.978 437.068 110.769 478.509 71.3747C475.071 87.3616 476.701 114.434 482.862 129.345C485.23 135.076 488.963 141.884 491.709 147.626C498.107 161.34 501.572 176.237 501.884 191.367C502.637 231.551 489.582 261.212 462.113 289.868C460.787 291.599 454.04 299.863 452.493 301.097C449.495 305.041 446.528 309.008 443.59 312.998C443.42 326.329 441.26 341.377 441.395 353.83C460.164 334.872 476.595 320.028 496.63 302.445C501.112 286.083 505.04 269.248 510.661 253.137C511.873 249.662 510.043 241.236 510.5 237.258C511.766 219.367 514.724 202.136 522.066 185.747C527.188 174.257 533.54 163.356 541.01 153.235C549.101 142.474 559.67 133.317 564.406 120.776C567.59 130.132 570.301 137.634 571.591 147.519C575.773 179.565 568.676 210.656 546.833 235.126C539.625 243.202 527.482 254.68 517.124 258.768C513.144 270.633 509.58 282.633 506.438 294.747C525.936 281 545.726 267.334 567.014 256.451C577.658 251.01 579.443 243.548 585.455 233.646C590.421 225.509 595.839 217.657 601.684 210.126ZM386.325 440.608C376.629 457.273 365.822 473.196 356.331 490.201C347.741 505.733 339.393 521.397 331.291 537.189C327.577 544.577 323.983 552.97 320.239 560.069C316.865 568.329 312.446 576.115 308.926 584.164C302.492 598.878 295.95 613.867 289.823 628.712C288.32 632.238 282.824 645.715 281.05 648.535C278.791 656.177 272.333 669.45 269.161 677.315C251.335 722.029 230.588 765.521 207.052 807.51C204.742 812.156 200.998 818.247 198.32 822.97C190.012 837.473 181.489 851.853 172.756 866.105C168.927 872.404 161.682 883.39 158.79 889.715C163.482 886.843 172.722 877.595 176.848 873.459C207.617 842.616 232.231 802.967 254.179 765.47C258.56 757.987 262.265 750.079 266.637 742.663C267.405 740.353 272.52 730.911 273.91 728.131C278.569 718.814 282.954 709.038 287.703 699.821L323.9 616.993C329.049 604.886 333.729 592.659 338.887 580.578C345.552 565.189 352.507 549.927 359.747 534.799C366.828 519.627 374.042 503.855 381.855 489.025C421.474 413.82 477.096 343.353 546.95 294.102C581.616 269.66 612.76 254.129 651.144 237.393C653.108 236.222 657.837 234.941 660.409 233.969L658.983 232.47C657.521 232.869 650.774 235.149 650.404 235.219C640.508 237.069 619.681 244.667 610.233 248.532C551.669 272.837 498.847 309.143 455.171 355.109C443.738 367.002 433.043 379.738 422.351 392.297C421.006 393.878 414.523 402.301 413.393 403.111C406.016 413.295 398.053 422.981 391.161 433.528C390.27 434.893 387.308 439.635 386.325 440.608ZM594.451 326.136C596.863 327.117 599.718 327.922 602.256 328.585C661.157 343.983 706.862 380.755 766.977 393.148C761.567 388.216 753.851 381.963 748.14 377.244C740.53 370.955 724.426 353.25 715.891 351.246C712.295 350.855 705.773 349.247 701.788 348.519C691.394 346.62 680.915 346.626 670.457 348.219C669.112 348.424 669.474 348.635 667.88 348.327L668.335 347.908C684.646 343.648 698.75 345.793 714.56 349.782C715.203 349.424 714.902 349.696 715.308 348.821C713.123 344.949 691.535 330.828 686.877 329.442C673.893 325.58 656.533 325.75 643.649 330.306C641.736 330.983 633.884 334.402 632.549 334.119C636.298 330.703 653.105 326.071 658.789 325.509C660.99 325.292 671.579 324.146 672.722 323.415L672.386 322.747C661.887 317.799 642.928 312.067 631.195 311.871C630.209 311.854 623.566 313.835 622.176 314.244C612.816 316.963 602.735 320.936 594.451 326.136ZM287.023 380.898L285.302 380.518C284.27 416.045 288.318 440.118 298.468 474.273C300.793 482.098 303.646 494.849 306.796 502.048C308.65 499.466 305.748 488.471 304.902 485.221C297.168 455.506 288.672 426.071 287.538 395.154C287.369 390.537 286.684 385.448 287.023 380.898ZM192.677 728.975C191.334 733.004 192.274 738.222 192.579 742.644C195.548 737.747 197.786 733.501 200.411 728.424C204.332 718.553 212.466 699.059 211.067 688.634L210.449 688.64C209.095 689.272 208.94 689.066 208.333 690.618C203.281 703.515 198.893 716.545 192.677 728.975ZM408.886 695.245C408.175 694.968 406.348 694.795 405.496 694.68C398.329 693.187 392.742 692.161 385.335 691.801C381.933 690.915 377.158 690.633 373.546 690.303C370.132 689.879 365.987 689.727 362.495 689.515L361.281 690.704C362.65 690.827 367.687 691.369 368.811 691.339C370.657 691.537 383.779 693.339 384.768 693.019C389.983 694.312 395.426 695.229 400.72 696.206C404.279 696.901 406.683 697.418 410.138 698.465C420.289 701.098 430.333 704.132 440.244 707.56C447.349 710.093 455.007 713.116 462.2 715.492C463.419 715.894 464.186 715.476 465.029 714.832L464.882 713.878C463.372 712.286 460.484 711.436 458.22 710.405C442.717 703.349 425.738 697.796 408.886 695.245ZM582.101 322.522L581.87 323.248C583.926 324.055 591.233 325.806 593.183 325.353C600.907 320.124 607.986 317.099 616.7 313.996L615.13 312.622C612.442 310.186 604.801 312.801 601.47 313.625C594.796 315.953 587.729 318.142 582.101 322.522ZM179.215 466.904C177.991 466.547 178.485 466.854 177.677 466.078L177.003 466.814C177.115 468.536 177.183 469.368 177.514 471.052C177.363 473.208 177.547 475.544 177.916 477.741C183.829 512.955 205.699 534.446 232.704 555.173C234.203 556.324 234.841 556.601 236.42 556.342C236.94 554.816 236.847 554.456 236.337 552.804C228.295 526.761 219.732 500.53 212.648 474.219C205.598 448.038 200.012 420.79 196.751 393.91C195.912 386.996 195.816 378.876 195.487 371.84C194.756 373.389 194.057 374.954 193.39 376.533C188.148 388.952 173.933 431.061 178.904 443.296L177.715 444.678C176.14 452.646 176.46 459.302 179.215 466.904ZM489.222 163.389C483.543 176.673 470.733 192.603 460.025 202.561L459.552 202.306C469.918 190.307 478.962 177.935 485.068 163.256C485.823 161.44 486.77 159.212 487.681 157.499C486.351 154.692 479.236 138.709 477.542 137.956L477.327 138.117C476.875 137.792 476.642 137.425 476.269 136.979C476.785 132.724 475.632 129.522 474.602 125.458C471.88 114.709 470.704 104.211 471.098 93.1217C461.336 117.67 461.303 141.865 460.219 167.885C458.537 208.247 446.484 247.839 445.3 288.082L445.658 287.513C449.046 282.198 454.635 275.789 458.801 271.029C475.745 251.663 491.789 229.442 492.36 202.683C492.37 202.237 492.06 201.693 491.859 201.289C491.287 201.181 490.604 200.856 490.301 201.413C481.578 217.432 472.788 233.001 457.01 243.864L456.595 243.639C473.412 229.305 487.815 204.573 492.437 182.484C493.267 178.517 490.327 167.767 489.222 163.389ZM323.957 183.576C325.221 194.257 334.139 252.845 338.871 259.642C339.139 255.98 342.654 243.237 343.571 237.87C344.855 230.362 344.792 221.751 345.943 215.415L346.261 215.533C346.983 223.916 344.862 254.387 339.085 260.034C337.752 264.705 361.101 345.034 364.471 355.691C365.819 349.532 369.891 339.723 372.364 333.504C377.952 319.448 383.842 300.355 383.618 285.102C383.543 279.953 379.983 268.567 378.338 263.822C374.022 285.434 369.677 294.528 358.48 313.754L357.683 313.729L358.235 314.147L357.507 314.151L358.001 314.51L357.406 314.407C358.272 312 361.864 305.795 363.205 303.111C367.629 294.372 370.836 285.069 372.738 275.46C373.602 271.205 375.481 260.021 374.71 255.919C373.345 248.652 365.738 236.148 361.552 229.852C361.435 233.016 361.167 236.385 360.969 239.563C359.125 239.919 360.242 242.048 359.151 243.847C359.168 241.627 359.264 240.846 358.483 238.794C358.449 235.71 358.762 228.314 357.515 226.042C352.807 217.462 344.252 209.937 338.515 201.625C332.064 192.28 328.651 184.247 324.202 174.115C323.331 177.612 323.661 180.002 323.957 183.576ZM302.036 266.334L301.387 268.167C299.939 274.13 303.441 295.114 307.197 301.156L307.727 301.996C307.184 304.171 308.246 305.015 309.499 306.865L309.019 307.602C308.389 310.197 311.322 315.631 312.763 317.866C325.025 336.877 341.105 352.654 359.777 365.16C358.089 356.53 355.643 348.955 352.969 340.583L352.731 340.185C349.68 326.172 344.997 310.162 341.346 296.046C336.084 275.605 331.23 255.06 326.788 234.425C323.908 221.07 319.186 198.236 319.605 184.59C319.416 180.433 319.224 176.746 318.783 172.614C307.234 196.294 302.25 219.594 300.839 245.797C300.515 251.807 298.982 261.058 302.036 266.334ZM637.953 106.658C627.901 117.641 622.794 126.285 620.045 141.051C617.005 157.379 615.884 173.869 615.928 190.465C620.944 185.388 627.416 176.111 632.029 170.129L657.146 138.089C673.213 117.312 689.494 95.9641 707.018 76.5036C713.471 69.3373 719.962 63.8884 726.432 57.1802C712.562 58.409 679.892 70.8534 670.26 81.0139L669.213 80.8767C667.576 82.259 666.987 83.5782 665.675 84.7393L664.34 84.2842C660.198 84.9507 650.742 94.2723 647.067 97.2865C636.402 106.033 638.483 122.748 640.348 134.816C640.673 136.916 642.865 140.879 642.793 143.472C641.509 142.028 639.602 136.27 638.962 134.206C636.136 125.099 637.054 115.95 637.953 106.658ZM756.985 180.968C758.581 179.042 771.483 169.671 774.098 167.905C782.24 161.08 793.363 153.916 802.065 147.493C819.603 134.732 837.58 122.586 856.176 111.412C872.805 101.419 889.208 90.0586 908.553 86.4191C894.249 83.8482 844.512 83.7631 833.575 94.6617L830.986 93.9028C820.82 97.1287 794.297 109.118 789.03 119.419C786.216 124.922 782.397 138.956 781.427 145.426C780.999 148.281 781.209 152.655 780.177 155.67C777.904 148.19 785.58 125.224 784.106 122.289C781.391 122.771 775.582 129.541 773.307 131.916C765.516 140.05 766.008 153.161 762.271 163.472C761.064 166.803 756.516 178.517 756.364 180.437L756.985 180.968ZM549.432 452.127L549.642 450.826C562.378 463.6 573.485 472.714 588.865 482.507C594.271 485.949 602.261 489.911 606.941 493.206C612.111 493.34 616.954 493.48 622.137 493.313C606.738 479.835 601.667 473.968 588.111 459.217L588.28 458.722C601.15 470.887 616.229 485.735 632.961 492.681C641.235 491.187 648.663 489.748 656.813 487.571C650.472 482.886 643.964 478.243 638.317 472.714C633.933 468.422 629.493 460.739 624.5 457.688C612.691 450.471 527.866 439.135 514.264 442.275C512.862 442.599 512.767 442.917 512.114 444.072C512.586 447.274 525.277 456.733 528.548 459.057C546.136 471.552 570.533 489.301 591.938 492.381C573.298 477.965 565.269 470.202 549.432 452.127ZM629.929 381.232C627.52 375.692 622.728 370.104 619.551 364.957C617.769 362.069 608.642 344.836 609.389 342.632L609.093 342.658L609.103 341.957L609.398 343.1L610.01 343.449C618.468 359.882 628.678 373.922 643.153 385.728C648.461 390.058 652.905 391.185 659.466 392.595C646.846 378.627 644.627 377.374 634.309 360.257L635.489 359.819C645.033 372.646 657.292 387.504 671.532 394.88C677.419 397.929 701.288 399.664 708.432 399.542C697.104 390.066 690.05 383.444 680.991 371.513L681.218 371.109C689.801 378.691 708.418 398.4 720.34 399.724C734.095 401.251 754.484 399.925 768.237 397.337C754.168 394.617 740.59 391.713 727.107 386.732C704.678 378.446 683.444 367.551 661.87 357.436C645.324 349.678 627.681 343.483 610.197 338.249C601.662 335.694 591.611 332.444 582.807 331.04C584.257 333.477 585.81 335.481 587.536 337.709C599.68 353.385 612.678 370.871 629.929 381.232ZM507.875 608.663L509.799 609.857L509.972 610.363C540.776 620.022 570.865 626.817 603.336 627.019C609.471 627.169 615.609 627.053 621.734 626.67C624.948 626.61 628.922 626.092 632.181 625.751C611.029 621.157 602.321 613.964 584.011 603.427C571.685 596.333 549.485 585.157 535.982 581.877C520.926 578.22 494.829 585.467 480.144 591.206L479.034 590.504C488.948 586.041 499.308 582.644 509.939 580.368C513.803 579.537 518.684 578.906 522.211 578.051C517.685 575.388 505.526 572.387 500.298 571.883C486.848 570.588 470.242 573.439 457.103 576.808C444.344 580.087 431.903 584.5 419.93 589.994C427.425 591.498 435.37 592.931 442.904 594.188C449.106 595.223 460.095 599.366 465.448 596.883L465.942 597.437L464.217 598.407C465.037 599.236 504.47 609.853 507.875 608.663ZM558.376 654.502L557.927 654.306C544.794 648.684 535.116 648.076 523.626 635.953C536.78 644.852 559.329 654.455 575.357 651.296C583.523 649.687 620.724 637.226 623.619 632.09C620.549 631.329 611.994 632.032 608.334 632.17C576.574 635.096 539.722 626.202 509.516 617.596C498.451 614.444 479.629 609.175 468.399 607.284C474.188 622.394 498.955 648.932 513.591 655.345C524.061 659.933 547.097 657.176 558.376 654.502ZM191.395 723.961C197.784 715.251 209.012 683.159 212.124 671.666C212.665 669.67 211.536 660.666 211.135 658.29C210.784 656.207 209.863 649.536 208.634 647.798L205.661 649.072L206.609 644.243L205.127 643.492C207.527 627.541 198.072 615.434 190.904 601.926L190.824 602.847L189.434 603.041C191.038 592.495 162.137 567.051 153.413 560.876C149.963 558.434 145.674 556.063 142.072 553.849C146.932 559.947 153.337 568.404 156.787 575.405C174.003 610.338 182.673 650.208 187.862 688.595C189.444 700.296 189.786 713.338 191.395 723.961ZM798.348 335.071L800.283 334.763C798.022 332.556 788.231 323.323 785.668 321.554C774.724 314.001 740.581 264.215 730.019 264.126C729.923 266.832 743.423 279.174 746.03 282.438C761.939 302.36 776.671 321.049 798.348 335.071ZM242.295 573.765C243.357 571.618 240.738 566.739 240.161 563.476C227.133 555.238 216.336 546.835 205.084 536.357C202.141 533.617 194.786 524.88 192.416 524.398L192.649 523.705C192.006 521.871 187.693 516.399 186.274 514.682C187.055 517.464 189.73 522.334 191.658 524.568L192.416 524.398C193.567 533.709 222.573 558.957 230.903 565.452C234.631 568.317 238.429 571.089 242.295 573.765ZM577.954 556.195C572.765 550.493 567.111 545.87 560.991 541.232C539.597 525.256 515.5 513.263 489.855 505.827C485.315 504.495 475.879 502.07 471.321 502.698C472.822 503.598 474.063 504.121 474.991 505.573C477.231 506.455 479.361 507.035 481.671 507.685C506.515 514.682 529.884 526.815 551.346 541.018C559.314 546.291 569.064 553.06 577.954 556.195ZM611.29 198.719C612.424 183.856 615.616 161.268 617.37 145.952C617.138 145.577 616.906 145.201 616.674 144.825L615.883 143.787C607.77 149.217 606.579 193.397 607.265 203.61L611.29 198.719ZM927.931 249.976L928.017 248.956L928.513 248.743C928.464 248.614 928.416 248.485 928.367 248.355C914.126 233.397 895.88 221.548 876.053 215.524C857.764 209.967 838.882 210.66 821.845 219.87C829.38 219.578 836.908 219.125 844.423 218.51C845.413 219.342 845.222 218.849 845.389 219.861C839.895 220.328 832.944 220.641 827.871 222.499C832.152 225.097 842.098 228.68 846.977 230.544C853.959 233.138 860.836 236.006 867.593 239.14C883.602 246.375 899.515 253.819 915.33 261.47C929.824 268.44 943.215 275.16 958.121 281.255C956.91 279.404 953.229 275.115 951.558 273.686C945.011 268.087 935.413 252.627 927.931 249.976ZM832.499 233.538L832.146 231.807C829.233 229.961 822.735 228.767 819.208 227.7C824.649 240.166 829.405 251.602 840.372 260.311C842.256 261.808 845.163 264.667 847.536 264.913L847.798 264.063L846.824 262.302C840.946 255.867 834.96 241.834 832.499 233.538ZM450.969 201.952C449.229 199.519 447.987 197.596 446.431 195.046L447.307 194.676C448.242 196.282 450.126 198.588 451.308 200.13C452.863 193.823 453.823 184.428 454.403 177.916C456.9 149.833 454.576 123.466 464.564 96.41C455.83 107.627 434.88 137.419 432.111 150.986L431.877 151.96C427.888 157.535 422.122 176.184 420.94 183.195C420.668 184.807 420.848 187.899 420.953 189.612L419.86 189.028C419.022 192.078 420.84 193.636 418.809 195.597C415.416 203.98 413.237 224.106 414.181 232.935C416.22 252.013 428.899 274.01 438.35 290.082C438.875 286.328 439.166 282.592 439.518 278.821C441.924 252.977 446.951 227.58 450.969 201.952ZM555.15 483.396L555.121 482.415C548.092 477.525 541.197 472.445 534.445 467.179C530.122 463.741 524.896 458.404 519.789 456.561C509.395 452.812 514.902 441.828 501.4 442.567C501.356 444.18 501.097 444.447 502.625 445.839C506.68 449.534 511.598 453.19 515.644 456.797C525.993 466.021 535.382 475.293 548.448 480.8C550.215 481.544 553.311 483.033 555.15 483.396ZM853.237 120.526C852.422 121.765 851.868 122.419 851.501 123.873C841.654 128.438 834.13 132.948 825.153 139.065L824.817 139.422C819.578 141.935 812.837 147.327 807.931 150.794C798.272 157.621 788.411 165.268 778.541 171.76C774.032 175.199 768.989 178.453 764.709 182.028C790.342 181.91 824.785 185.074 845.776 168.351C847.689 166.827 854.333 162.574 854.233 160.314C852.08 158.969 844.175 161.032 841.237 161.503C835.773 162.332 830.272 162.892 824.753 163.182C818.622 163.522 812.38 163.117 806.242 162.815C806.89 161.377 808.385 163.114 810.868 161.798C826.524 160.54 849.899 160.879 864.121 151.861C866.734 150.205 874.471 139.274 876.722 136.261C863.227 137.855 854.4 138.647 840.777 139.021L840.563 137.053C853.354 136.262 866.081 135.991 878.625 132.807C885.952 123.644 890.704 112.914 898.412 103.934C904.763 96.5361 910.986 92.6531 919.243 87.9042C913.794 88.6813 909.724 89.8274 904.46 91.564C899.49 93.1813 894.618 95.0875 889.869 97.2727C883.252 100.345 855.985 115.066 853.237 120.526ZM368.529 370.702C372.565 363.111 384.499 326.853 383.856 319.264C383.292 318.568 383.485 318.629 382.759 318.223C377.449 331.621 370.84 348.132 366.07 361.519L368.529 370.702ZM798.638 188.919C802.805 188.069 806.34 187.406 810.404 186.068C794.194 186.046 776.844 186.388 760.688 184.976C758.228 186.716 755.483 188.75 752.987 190.374C769.731 191.46 781.952 191.363 798.638 188.919ZM410.549 588.891C413.634 589.412 413.711 589.467 416.427 588.416C430.219 583.08 443.835 576.805 458.343 573.62C460.775 573.086 470.847 571.468 471.887 570.119L472.822 571.036C477.93 570.811 483.137 570.161 488.23 569.606C486.588 568.351 473.863 568.982 471.887 570.119C456.296 569.038 422.396 578.609 410.705 588.337L410.549 588.891ZM401.555 594.65C409.097 606.986 420.192 618.489 431.338 627.581L432.524 626.761C422.314 617.17 414.725 605.815 405.95 595.062C405.756 594.824 402.152 594.678 401.555 594.65ZM437.317 304.3C437.539 302.1 438.247 298.856 438.666 296.604C431.748 288.931 422.372 269.281 418.48 259.429L416.804 260.837C420.04 275.422 427.281 293.144 437.317 304.3ZM159.394 712.312C168.649 726.05 175.239 732.955 186.593 744.81L185.451 731.502C177.497 726.819 166.921 717.604 160.228 711.291L159.394 712.312ZM348.302 798.955L366.103 799.375C369.969 799.267 373.944 799.208 377.796 799.044C386.802 788.741 393.013 782.032 404.622 774.2C398.495 772.16 394.827 771.746 388.344 771.038C367.439 778.476 363.544 784.587 348.302 798.955ZM380.224 770.654C376.222 770.252 369.937 769.422 366.164 770.05C349.083 774.718 332.679 786.651 320.42 799.297C324.845 799.189 329.436 799.349 333.875 799.411C337.915 799.452 341.152 799.527 345.159 799.117C356.457 787.658 365.088 777.586 380.224 770.654ZM493.096 500.291L493.857 501.902C496.519 502.493 505.303 503.713 506.558 504.174C518.686 508.63 530.184 514.16 541.491 520.192C543.81 521.334 544.673 521.817 546.77 523.315C549.325 525.176 551.828 526.762 554.487 528.464L555.2 528.055C552.989 526.002 550.513 523.45 547.959 521.965L544.24 519.233C535.877 512.587 503.158 496.811 493.52 499.039L493.096 500.291ZM218.352 472.988C222.202 487.992 227.135 502.668 231.673 517.474C234.407 526.395 237.303 535.728 240.623 544.425C242.053 539.518 244.885 532.5 246.65 527.504C249.251 520.141 251.451 512.643 253.243 505.043C255.255 496.56 257.447 485.025 256.796 476.356C256.131 467.504 251.408 452.711 246.812 445.265C244.089 463.491 242.656 479.869 233.856 496.907C233.112 498.347 231.223 502.121 230.261 503.147C238.392 482.875 245.325 460.248 242.519 438.154C242.143 435.192 236.394 426.527 234.464 423.849L233.243 429.255C230.67 441.154 225.939 459.364 220.529 470.026L218.352 472.988ZM531.015 413.159C521.294 417.113 500.753 426.408 494.66 435.044L494.957 435.495C498.753 435.823 500.279 435.769 503.384 433.739C507.811 428.832 525.679 416.975 532.094 414.498L531.015 413.159ZM763.261 146.9C756.782 156.559 749.22 173.738 748.294 185.279L748.676 186.116L748.91 186.2C749.57 185.618 750.494 184.803 751.683 183.755C754.975 171.814 761.001 160.429 763.675 148.398C763.846 147.625 763.814 147.778 763.261 146.9ZM645.378 192.523C647.999 191.51 650.534 190.354 653.099 189.211C648.69 189.589 646.879 189.908 642.729 191.19C637.79 190.83 620.93 196.143 616.968 199.793C615.683 200.977 613.455 203.289 612.198 204.719C618.901 202.852 640.237 196.183 645.378 192.523ZM705.31 133.318C692.846 138.486 682.507 140.005 669.336 141.222L669.067 140.149C679.956 138.811 693.821 136.432 703.591 131.248C710.242 127.72 712.824 113.561 714.778 106.192L709.616 111.167C704.035 115.836 697.556 118.179 690.579 120.248C686.502 121.486 683.043 122.536 678.892 123.444L678.229 122.782L677.984 122.885L678.18 123.567L676.831 123.651L677.193 123.103L677.437 123.514L677.759 122.791L678.04 123.402L678.614 123.278L678.76 122.321C681.822 120.933 685.85 119.692 689.108 118.591C696.434 115.793 702.436 113.708 708.42 108.518C710.452 106.475 714.486 102.59 715.964 100.389C717.529 98.0589 718.3 92.103 719.048 88.9847C722.292 75.4489 727.43 65.4911 736.468 54.9102C717.332 64.4284 677.764 121.657 662.019 140.68L661.786 141.443C660.626 142.425 651.471 154.511 650.102 156.279L632.53 179.087C629.648 182.867 624.916 188.73 622.745 192.699C628.885 191.075 635.224 188.244 641.653 186.637C648.021 185.047 655.451 183.586 661.583 181.886C671.462 179.148 681.866 167.279 688.956 159.736C681.037 162.971 674.869 164.634 666.319 165.907C655.519 167.514 650.921 165.639 640.835 170.294L640.495 169.856C641.426 168.628 643.787 167.308 645.273 167.043C659.88 164.435 678.333 163.516 691.002 155.406C695.408 152.586 702.734 138.549 705.31 133.318ZM472.145 262.813L471.251 261.773C464.987 269.101 445.555 290.537 444.292 298.588L444.761 298.827C447.592 296.258 448.984 293.443 451.442 290.571C459.273 281.421 465.478 272.78 472.145 262.813ZM519.139 252.895C520.815 251.88 524.095 250.02 525.491 248.859C542.195 237.602 555.309 221.778 563.268 203.274C570.27 186.834 571.489 168.715 569.864 151.097C569.355 145.58 569.078 140.937 566.967 135.715L566.433 135.696C565.74 137.759 565.206 158.428 564.825 162.796C561.46 201.362 547.163 220.701 522.98 247.867C521.102 249.693 520.529 250.714 519.139 252.895ZM593.471 442.379C595.192 441.044 597.592 439.054 599.373 437.951C607.663 432.572 618.924 428.872 628.607 426.901C631.441 426.325 634.913 426.293 637.224 424.618L640.183 423.295C638.476 420.897 632.396 419.137 629.618 418.039C622.078 415.058 615.595 413.428 607.524 413.371L607.332 412.541C605.049 411.479 603.775 413.056 601.515 411.72C601.35 410.864 601.476 410.38 600.814 410.158C589.861 406.48 571.64 405.54 560.279 406.591C557.15 406.88 546.653 410.44 544.112 411.258C530.579 417.504 516.885 424.661 505.443 434.318C509.15 435.082 514.102 434.798 517.943 434.731C527.229 434.571 536.555 435.746 545.791 435.324C545.791 435.324 547.938 433.484 548.147 433.305L548.651 433.611L547.103 435.32L547.346 435.902C564.535 437.455 576.25 438.936 593.471 442.379ZM250.824 561.445C249.713 562.769 248.259 564.112 248.133 565.733L248.836 566.661C250.068 564.918 250.915 564.089 251.245 562.054L250.824 561.445ZM528.75 224.003C534.986 212.242 539.961 201.62 544.266 188.986C545.184 186.293 547.136 182.397 547.396 179.776C546.678 180.307 545.501 182.354 545.131 183.199L527.718 222.616L528.75 224.003ZM600.109 360.978C599.178 357.445 579.209 330.886 575.214 329.305C578.83 335.158 594.51 358.295 600.109 360.978ZM359.47 806.488C357.133 804.293 329.387 805.397 323.715 805.261C313.747 805.518 298.363 805.712 288.711 808.208C294.198 813.036 300.176 817.102 306.301 820.98C327.41 834.345 340.011 838.758 364.51 837.236C352.31 829.524 345.706 827.813 335.664 815.617L336.603 814.837C346.472 824.955 359.66 834.92 374.692 836.765C378.33 837.211 396.828 832.995 400.107 830.968C401.73 829.841 401.644 829.839 403.54 829.381C405.968 830.046 407.85 829.46 410.213 828.675C433.206 821.037 457.833 804.9 468.66 782.577C443.982 794.824 426.687 798.362 399.828 802.803C398.891 803.83 399.138 803.383 398.849 804.765L397.243 805.37L396.979 805.955C386.042 801.717 372.641 805.66 360.203 805.4L359.927 805.882L360.077 806.191L359.47 806.488ZM274.318 408.462C273.306 413.014 275.057 421.511 276.25 426.02C276.232 422.738 275.91 411.317 275.222 408.422C275.547 403.939 276.035 399.469 276.684 395.022C277.371 390.57 279.144 383.765 278.725 379.618L278.255 379.377C274.188 384.958 273.758 401.528 274.318 408.462ZM295.389 820.317L296.816 817.753C292.644 814.691 289.82 812.533 286.499 808.582C284.474 808.653 282.577 808.818 280.663 809.58C285.569 813.588 289.868 817.073 295.389 820.317ZM419.279 778.048C415.971 776.677 411.382 775.515 407.836 774.51C403.66 777.942 399.127 781.094 395.054 784.569C389.594 789.229 384.221 794.225 378.891 799.048C414.215 797.673 424.06 796.05 457.313 784.302C450.343 783.105 443.228 782.641 436.13 781.486C432.581 780.908 423.896 778.574 421.066 778.42L419.279 778.048ZM464.54 494.226C467.797 496.364 473.367 496.435 477.102 495.781C477.014 495.809 482.346 495.245 482.651 495.21C483.347 494.357 483.145 494.517 483.52 493.391C479.518 493.034 467.722 492.28 464.54 494.226ZM468.765 715.639C467.534 717.322 467.606 716.748 467.388 718.59C468.35 719.87 467.721 719.428 469.452 719.781L471.858 719.005L472.796 718.148C471.929 716.564 470.515 716.124 468.765 715.639ZM241.667 547.494C242.816 551.317 243.87 554.812 245.244 558.555L246.31 560.2C247.759 559.751 247.958 558.223 249.155 556.374L249.683 555.567C256.828 539.224 263.722 510.16 260.733 492.268C261.449 490.526 260.344 484.314 260.043 482.117C259.38 486.457 259.633 490.173 259.109 494.106C254.992 516.406 248.147 527.826 241.667 547.494ZM719.258 256.519C720.921 259.199 724.539 261.501 727.27 263.046L728.52 263.058C727.568 260.965 721.442 257.204 719.258 256.519ZM504.87 655.004L504.183 654.261C499.766 649.557 494.136 645.931 488.798 639.976C478.595 628.592 473.519 618.203 465.202 606.118C456.148 604.319 440.829 601.714 432.493 599.45C443.701 617.88 456.666 638.344 476.808 647.857C481.691 650.163 499.574 655.476 504.87 655.004ZM364.175 379.748C363.762 377.896 363.006 373.555 361.869 372.29C358.442 368.475 353.604 365.084 349.527 361.869C345.142 358.403 340.889 354.775 336.776 350.991C333.171 347.636 323.037 335.443 320.044 333.811C324.014 346.494 351.624 373.34 364.175 379.748ZM200.311 366.072C198.145 395.852 207.79 429.408 214.661 458.319C215.139 460.331 217.46 470.446 218.313 471.423C219.142 470.51 219.185 470.39 219.797 469.305C224.088 460.57 229.763 437.187 231.439 427.438C231.91 425.227 232.406 422.541 233.01 420.402C224.457 409.968 214.657 399.135 207.968 387.424C204.157 380.751 202.462 373.402 200.311 366.072ZM550.562 170.978C549.77 172.578 548.966 173.695 549.109 175.429C550.324 174.497 550.603 173.296 551.129 171.767C553.574 167.737 558.474 152.594 558.651 147.882C557.567 151.85 556.599 155.184 555.124 159.014C553.78 162.505 551.327 167.524 550.562 170.978ZM253.067 555.842C252.478 557.823 252.104 557.905 252.517 559.612C254.187 558.386 254.427 556.996 254.464 555.018L253.067 555.842ZM439.362 726.413C430.712 726.767 422.572 726.79 413.926 725.641C392.66 722.816 360.495 710.382 344.728 695.596L344.262 695.152C341.847 695.35 339.985 695.519 337.543 695.489C363.069 727.558 403.061 738.931 442.4 729.863C445.09 729.071 455.797 727.087 456.792 724.726C453.823 723.791 443.279 725.99 439.362 726.413ZM629.832 458.923C630.785 463.708 642.94 472.951 647.216 475.948C667.902 490.445 690.443 486.551 712.894 479.497C715.258 478.741 717.492 478.076 719.778 477.097C712.193 475.937 703.883 475.128 696.263 474.327C675.678 472.163 656.516 466.638 636.84 460.553C634.57 459.852 632.22 459.22 629.832 458.923ZM737.455 301.597C736.976 299.878 730.762 289.066 729.884 287.49C727.636 283.454 716.229 257.614 713.854 256.012C716.552 261.543 733.638 301.255 737.455 301.597ZM810.999 226.01C813.547 230.205 815.762 233.551 818.59 237.566L819.448 236.922C820.439 234.921 819.884 233.981 819.07 231.549C818.585 230.118 818.089 228.691 817.582 227.267L810.999 226.01ZM850.701 237.613C847.107 236.355 836.814 232.632 833.494 232.144L833.581 232.737C836.053 241.232 843.536 252.781 848.783 259.856C855.304 266.928 858.374 270.659 867.147 274.386C860.548 261.454 853.834 253.244 850.701 237.613ZM410.193 595.846C419.074 605.218 443.328 636.927 455.56 638.246C454.174 634.905 449.339 630.065 446.92 626.77C440.631 618.202 435.288 608.978 430.985 599.259C424.27 597.698 417.049 596.709 410.193 595.846ZM717.349 472.584C714.17 470.069 704.774 463.723 701.098 461.194C689.295 453.074 659.5 427.547 645.731 427.474C629.512 427.402 614.353 430.606 600.104 438.631L594.399 442.671C598.792 443.211 604.249 444.551 608.588 445.583C636.187 452.148 662.614 462.407 690.508 467.934C699.494 469.715 708.137 471.993 717.349 472.584ZM304.63 792.43C302.35 795.235 300.507 797.308 298.811 800.512C305.099 800.399 311.381 800.045 317.642 799.45C328.716 787.521 339.159 778.401 353.607 770.86C345.374 771.182 326.804 773.562 319.925 778.15C316.022 780.753 308.293 788.752 304.63 792.43ZM139.996 663.412C140.083 687.522 165.771 715.984 184.984 727.93C185.154 721.223 184.039 711.191 183.298 704.355C168.725 699.4 148.246 676.338 139.996 663.412ZM150.612 635.117C155.29 642.598 160.663 649.62 166.66 656.091C168.75 658.326 173.783 662.934 175.261 664.796C176.257 663.878 176.844 663.746 176.792 662.423C176.606 657.681 175.166 651.684 174.15 647.057C168.656 622.048 161.731 596.711 151.444 573.215C148.344 566.135 143.3 559.302 138.431 553.385C141.179 566.907 145.582 577.288 142.075 591.813C137.581 610.432 141.651 619.042 150.612 635.117ZM728.598 255.672L728.361 256.318C730.354 259.086 741.136 263.999 744.742 265.925C755.483 271.661 766.69 278.903 775.856 286.891C783.654 293.816 790.746 301.497 797.03 309.821C800.853 314.855 810.589 328.854 814.715 332.15C815.758 329.337 815.786 328.798 814.256 325.919C798.943 297.107 780.394 269.954 747.791 259.309C741.568 257.277 735.167 255.101 728.598 255.672ZM183.077 703.463C182.607 697.755 180.035 669.924 176.78 667.264C176.53 667.061 176.269 666.87 176.014 666.673C169.847 664.534 151.018 642.749 147.153 636.106C143.84 632.042 140.162 624.062 138.072 618.987C136.403 648.81 136.446 656.316 157.217 680.083C163.688 687.488 175.056 697.71 183.077 703.463ZM851.624 237.948C854.957 251.701 866.863 269.555 878.214 278.512C880.489 280.308 888.492 281.854 891.76 282.584C885.15 273.517 874.116 261.833 870.496 251.06L870.839 250.592C877.482 260.801 889.504 276.368 899.621 283.129C902.549 283.186 919.293 283.703 920.788 283.343L920.488 282.679C917.738 279.206 914.458 275.284 912.292 271.486C923.392 282.62 927.093 286.116 943.897 286.121C948 286.123 951.532 286.11 955.55 284.707L955.388 284.225C947.571 281.208 939.018 278.326 931.535 274.679C916.373 267.289 901.303 259.995 885.984 252.914C878.726 249.512 871.407 246.244 864.029 243.109C860.922 241.794 854.311 239.317 851.624 237.948Z"/><defs><linearGradient id="gradient_0" gradientUnits="userSpaceOnUse" x1="290.61465" y1="440.40631" x2="298.7392" y2="438.57693"><stop offset="0" stop-color="white" stop-opacity="0"/><stop offset="1" stop-color="white" stop-opacity="0.078431375"/></linearGradient></defs><path fill="url(#gradient_0)" d="M285.302 380.518L287.023 380.898C286.684 385.448 287.369 390.537 287.538 395.154C288.672 426.071 297.168 455.506 304.902 485.221C305.748 488.471 308.65 499.466 306.796 502.048C303.646 494.849 300.793 482.098 298.468 474.273C288.318 440.118 284.27 416.045 285.302 380.518Z"/><path fill="#F2F2F2" fill-opacity="0.0078431377" d="M385.335 691.801C392.742 692.161 398.329 693.187 405.496 694.68C403.913 695.205 402.325 695.759 400.72 696.206C395.426 695.229 389.983 694.312 384.768 693.019L385.335 691.801Z"/><path fill="#F2F2F2" fill-opacity="0.94117647" d="M373.546 690.303C377.158 690.633 381.933 690.915 385.335 691.801L384.768 693.019C383.779 693.339 370.657 691.537 368.811 691.339C370.412 690.776 371.878 690.591 373.546 690.303Z"/><path fill="#F2F2F2" fill-opacity="0.047058824" d="M650.404 235.219C650.774 235.149 657.521 232.869 658.983 232.47L660.409 233.969C657.837 234.941 653.108 236.222 651.144 237.393L650.404 235.219Z"/><path fill="#F2F2F2" fill-opacity="0.25098041" d="M405.496 694.68C406.348 694.795 408.175 694.968 408.886 695.245L408.071 695.811C408.781 696.702 409.456 697.55 410.138 698.465C406.683 697.418 404.279 696.901 400.72 696.206C402.325 695.759 403.913 695.205 405.496 694.68Z"/><path fill="#F2F2F2" fill-opacity="0.75686276" d="M362.495 689.515C365.987 689.727 370.132 689.879 373.546 690.303C371.878 690.591 370.412 690.776 368.811 691.339C367.687 691.369 362.65 690.827 361.281 690.704L362.495 689.515Z"/><path fill="#302F30" d="M207.052 807.51C206.951 802.093 218.866 778.756 218.367 775.193C218.204 774.033 218.161 773.202 218.313 772.044C221.117 767.737 224.862 770.35 225.904 768.695C230.194 761.881 234.095 749.261 238.043 742.055C240.549 737.48 243.032 735.897 244.212 731.615C245.846 725.683 248.71 720.069 251.119 714.699C254.782 706.53 258.174 699.117 261.353 690.78C262.38 687.964 265.412 684.109 266.235 681.341C269.511 670.323 274.785 660.727 279.282 650.267C279.749 649.18 280.043 649.295 281.05 648.535C278.791 656.177 272.333 669.45 269.161 677.315C251.335 722.029 230.588 765.521 207.052 807.51Z"/><path fill="#302F30" d="M287.703 699.821L288.13 700.751C285.46 706.705 281.489 711.949 283.628 717.749C286.455 720.231 283.521 719.523 288.25 720.324C289.493 719.611 295.137 710.956 297.742 708.429C289.235 729.608 277.356 753.018 266.78 773.316C265.097 776.546 260.017 785.843 258.179 788.502C257.936 781.862 278.597 747.223 281.522 738.483C282.599 735.263 280.524 725.186 279.4 722.378C274.328 728.563 271.005 735.759 267.364 742.883L266.637 742.663C267.405 740.353 272.52 730.911 273.91 728.131C278.569 718.814 282.954 709.038 287.703 699.821Z"/><path fill="#302F30" d="M231.363 731.608L231.857 732.391C230.157 736.678 227.321 741.129 227.403 745.525L228.008 746.105C229.335 745.24 229.357 744.86 230.507 745.06C231.241 748.171 222.566 766.488 220.48 767.013L218.323 765.61C218.53 764.614 218.407 764.997 219.115 764.136C218.777 762.312 218.861 761.805 219.232 759.979L218.688 759.635L218.535 761.699L217.429 761.841C216.266 763.717 216.151 764.896 214.167 766.02C219.98 754.846 225.337 742.449 231.363 731.608Z"/><path fill="#302F30" d="M289.823 628.712C289.747 628.476 289.146 626.576 289.189 626.427C293.464 611.383 302.159 597.033 308.536 582.92C309.682 579.06 309.914 574.319 311.836 570.663C313.375 567.736 317.229 561.399 320.239 560.069C316.865 568.329 312.446 576.115 308.926 584.164C302.492 598.878 295.95 613.867 289.823 628.712Z"/><path fill="#302F30" d="M209.112 724.976C205.681 732.357 199.859 745.078 194.157 750.786C192.159 746.955 189.509 732.94 191.77 728.908L192.677 728.975C191.334 733.004 192.274 738.222 192.579 742.644C195.548 737.747 197.786 733.501 200.411 728.424L201.105 728.638C200.086 730.945 198.767 733.384 200.635 735.477C205.475 735.204 204.764 727.997 209.112 724.976Z"/><path fill="#302F30" d="M578.51 317.299C582.739 314.459 588.068 312.065 592.74 310.069L592.405 311.119C594.475 312.1 598.665 313.458 600.949 313.196L601.47 313.625C594.796 315.953 587.729 318.142 582.101 322.522C582.769 321.108 584.222 317.806 583.87 316.323C582.301 315.864 581.129 316.764 579.465 317.107L578.51 317.299Z"/><path fill="#302F30" d="M386.325 440.608C385.996 440.13 386.183 440.46 385.935 439.54C389.814 432.869 407.285 405.084 413.393 403.111C406.016 413.295 398.053 422.981 391.161 433.528C390.27 434.893 387.308 439.635 386.325 440.608Z"/><path fill="#0A0A0B" d="M715.891 351.246C712.295 350.855 705.773 349.247 701.788 348.519C691.394 346.62 680.915 346.626 670.457 348.219C669.112 348.424 669.474 348.635 667.88 348.327L668.335 347.908C684.646 343.648 698.75 345.793 714.56 349.782L716.121 350.885L715.891 351.246Z"/><path fill="#F2F2F2" d="M658.983 232.47C663.539 230.382 691.166 223.63 695.188 224.398C692.546 225.282 661.023 234.001 660.409 233.969L658.983 232.47Z"/><path fill="#0A0A0B" d="M621.696 312.65L622.176 314.244C612.816 316.963 602.735 320.936 594.451 326.136L593.183 325.353C600.907 320.124 607.986 317.099 616.7 313.996C618.364 313.723 620.063 313.14 621.696 312.65Z"/><path fill="#F2F2F2" d="M285.343 363.84L286.687 364.436C287.149 367.726 287.914 378.112 287.023 380.898L285.302 380.518C284.713 378.827 285.079 366.023 285.343 363.84Z"/><path fill="#F2F2F2" d="M337.88 688.316C340.143 686.745 358.244 689.436 362.495 689.515L361.281 690.704C354.454 690.223 344.115 689.707 337.475 688.623L337.88 688.316Z"/><path fill="#302F30" d="M452.493 301.097L452.337 300.315C453.061 299.153 454.269 296.013 455.101 295.464C457.214 294.071 459.897 289.901 462.113 289.868C460.787 291.599 454.04 299.863 452.493 301.097Z"/><path fill="#F2F2F2" d="M615.13 312.622C615.842 311.406 615.513 311.374 616.654 311.19C619.904 310.665 624.277 310.969 627.599 311.077C625.585 311.666 623.759 312.232 621.696 312.65C620.063 313.14 618.364 313.723 616.7 313.996L615.13 312.622Z"/><path fill="#F2F2F2" d="M212.483 677.524C212.278 680.636 212.157 685.944 211.067 688.634L210.449 688.64L209.317 688.224C209.199 686.063 211.665 679.812 212.483 677.524Z"/><path fill="#0A0A0B" fill-opacity="0.98431373" d="M884.256 229.661C891.641 228.672 901.383 230.033 908.352 232.798C908.682 232.566 889.674 231.232 886.75 231.371C876.304 231.797 870.992 233.415 861.159 236.703C866.6 232.468 877.68 230.653 884.256 229.661Z"/><path fill="#0A0A0B" d="M218.733 405.892L219.21 406.332C223.223 417.182 220.042 448.476 216.504 460.318L216.299 460.619C215.59 459.918 217.794 443.839 218.118 441.243C219.618 429.251 219.531 417.929 218.733 405.892Z"/><path fill="#302F30" d="M307.857 784.277L308.679 784.522L308.722 785.449L308.281 785.799C305.893 787.716 305.369 788.218 304.233 790.99L304.63 792.43C302.35 795.235 300.507 797.308 298.811 800.512C305.099 800.399 311.381 800.045 317.642 799.45L317.526 799.993C316.28 800.616 316.597 800.677 315.356 800.714C317.255 802.882 323.485 803.759 326.378 804.681L323.715 805.261C313.747 805.518 298.363 805.712 288.711 808.208L286.499 808.582C284.474 808.653 282.577 808.818 280.663 809.58L280.136 809.394C279.075 808.143 279.323 807.809 279.204 806.302C278.994 803.631 278.035 807.019 277.978 803.296C279.887 798.926 289.885 796.416 290.902 793.933C293.193 791.01 299.37 788.123 302.707 786.398L303.112 786.335C304.879 785.267 305.89 784.981 307.857 784.277Z"/><path fill="#898A8C" d="M302.707 786.398C302.165 788.15 293.088 793.933 290.902 793.933C293.193 791.01 299.37 788.123 302.707 786.398Z"/><path fill="#898A8C" d="M307.857 784.277C307.005 785.678 304.691 787.146 303.112 786.335C304.879 785.267 305.89 784.981 307.857 784.277Z"/><path fill="#F2F2F2" d="M302.403 790.518L302.703 790.741C299.707 794.823 298.234 796.653 295.471 801.128C292.879 801.374 290.291 801.659 287.708 801.984L287.44 801.506C292.672 797.982 297.406 794.346 302.403 790.518Z"/><defs><linearGradient id="gradient_1" gradientUnits="userSpaceOnUse" x1="440.20123" y1="575.32318" x2="442.47122" y2="581.3125"><stop offset="0" stop-color="white" stop-opacity="0"/><stop offset="1" stop-color="white" stop-opacity="0.031372551"/></linearGradient></defs><path fill="url(#gradient_1)" d="M410.549 588.891L410.705 588.337C422.396 578.609 456.296 569.038 471.887 570.119C470.847 571.468 460.775 573.086 458.343 573.62C443.835 576.805 430.219 583.08 416.427 588.416C413.711 589.467 413.634 589.412 410.549 588.891Z"/><path fill="#F2F2F2" fill-opacity="0.0078431377" d="M493.096 500.291L493.52 499.039C503.158 496.811 535.877 512.587 544.24 519.233L541.491 520.192C530.184 514.16 518.686 508.63 506.558 504.174C505.303 503.713 496.519 502.493 493.857 501.902L493.096 500.291Z"/><defs><linearGradient id="gradient_2" gradientUnits="userSpaceOnUse" x1="510.5704" y1="421.55731" x2="515.18414" y2="427.14536"><stop offset="0" stop-color="white" stop-opacity="0"/><stop offset="1" stop-color="#FFFEFF" stop-opacity="0.047058824"/></linearGradient></defs><path fill="url(#gradient_2)" d="M531.015 413.159L532.094 414.498C525.679 416.975 507.811 428.832 503.384 433.739C500.279 435.769 498.753 435.823 494.957 435.495L494.66 435.044C500.753 426.408 521.294 417.113 531.015 413.159Z"/><defs><linearGradient id="gradient_3" gradientUnits="userSpaceOnUse" x1="415.39651" y1="612.40094" x2="419.10349" y2="609.59906"><stop offset="0" stop-color="white" stop-opacity="0"/><stop offset="1" stop-color="#FEFEFD" stop-opacity="0.031372551"/></linearGradient></defs><path fill="url(#gradient_3)" d="M401.555 594.65C402.152 594.678 405.756 594.824 405.95 595.062C414.725 605.815 422.314 617.17 432.524 626.761L431.338 627.581C420.192 618.489 409.097 606.986 401.555 594.65Z"/><path fill="#F2F2F2" d="M483.52 493.391C486.78 492.934 492.153 494.208 495.485 494.655C520.29 497.984 543.802 508.386 560.693 527.274C558.584 526.679 556.337 523.738 554.527 522.232C534.409 505.497 508.981 495.28 482.819 495.474L482.651 495.21C483.347 494.357 483.145 494.517 483.52 493.391Z"/><path fill="#0A0A0B" d="M541.367 409.813C543.382 409.022 544.443 408.562 546.535 408.101L546.842 408.449C546.451 409.891 545.528 409.693 544.112 411.258C530.579 417.504 516.885 424.661 505.443 434.318L503.384 433.739C507.811 428.832 525.679 416.975 532.094 414.498L531.015 413.159C533.649 411.949 538.421 410.685 541.367 409.813Z"/><path fill="#F2F2F2" d="M541.367 409.813C540.261 411.441 534.239 413.613 532.094 414.498L531.015 413.159C533.649 411.949 538.421 410.685 541.367 409.813Z"/><path fill="#302F30" d="M258.05 547.554C258.523 551.17 253.8 562.752 251.832 566.385C251.403 567.177 247.995 568.732 246.637 568.909C245.963 568.197 246.187 568.645 246.121 567.498C245.544 568.515 244.981 568.838 245.872 569.95C244.819 570.882 244.738 570.737 243.293 570.904C243.642 572.129 243.862 572.836 244.331 574.017L244.101 574.848L243.306 575.05C242.67 574.407 242.641 574.535 242.295 573.765C243.357 571.618 240.738 566.739 240.161 563.476L240.875 563.477C241.224 565.431 240.768 564.69 241.989 565.93L242.67 565.65C242.618 565.128 242.629 565.474 242.818 564.559L242.992 563.735L242.573 564.642L243.26 563.76L243.216 563.729L243.709 563.9C244.458 565.145 244.406 565.421 245.678 565.98C246.118 565.288 246.372 564.936 246.886 564.261L247.404 563.587L247.163 562.532C245.843 561.284 245.31 560.945 244.55 559.265L245.244 558.555L246.31 560.2C247.759 559.751 247.958 558.223 249.155 556.374L249.683 555.567C250.099 559.568 247.569 557.392 249.545 560.545C251.002 558.652 251.589 556.68 253.067 555.842C252.478 557.823 252.104 557.905 252.517 559.612C254.187 558.386 254.427 556.996 254.464 555.018C256.393 553.619 257.208 549.998 258.05 547.554ZM248.836 566.661C250.068 564.918 250.915 564.089 251.245 562.054L250.824 561.445C249.713 562.769 248.259 564.112 248.133 565.733L248.836 566.661Z"/><path fill="#F2F2F2" fill-opacity="0.035294119" d="M250.824 561.445L251.245 562.054C250.915 564.089 250.068 564.918 248.836 566.661L248.133 565.733C248.259 564.112 249.713 562.769 250.824 561.445Z"/><defs><linearGradient id="gradient_4" gradientUnits="userSpaceOnUse" x1="192.20255" y1="479.73303" x2="187.48947" y2="484.60159"><stop offset="0" stop-color="#38383A" stop-opacity="0.93725491"/><stop offset="1" stop-color="#040203"/></linearGradient></defs><path fill="url(#gradient_4)" d="M177.514 471.052C177.183 469.368 177.115 468.536 177.003 466.814L177.677 466.078C178.485 466.854 177.991 466.547 179.215 466.904C186.182 481.1 192.153 488.886 205.701 498.3C207.685 499.678 214.346 503.058 215.431 504.415C210.036 503.604 198.248 494.454 193.74 490.983C187.172 485.925 181.37 478.355 177.514 471.052Z"/><path fill="#0A0A0B" fill-opacity="0.98039216" d="M601.515 411.72C603.775 413.056 605.049 411.479 607.332 412.541L607.524 413.371C587.148 415.275 565.29 421.274 548.651 433.611L548.147 433.305C559.38 422.605 586.011 413.412 601.515 411.72Z"/><defs><linearGradient id="gradient_5" gradientUnits="userSpaceOnUse" x1="353.20862" y1="263.38083" x2="356.11496" y2="264.0206"><stop offset="0" stop-color="#151515" stop-opacity="0.95294118"/><stop offset="1" stop-color="black"/></linearGradient></defs><path fill="url(#gradient_5)" d="M358.483 238.794C359.264 240.846 359.168 241.627 359.151 243.847C360.242 242.048 359.125 239.919 360.969 239.563C359.688 254.408 356.671 275.038 346.966 287.031C354.18 272.858 356.713 254.504 358.483 238.794Z"/><path fill="#0A0A0B" d="M147.153 636.106C148.231 636.86 149.298 637.628 150.356 638.411L150.701 638.045C150.332 636.69 150.275 636.479 150.612 635.117C155.29 642.598 160.663 649.62 166.66 656.091C168.75 658.326 173.783 662.934 175.261 664.796L176.014 666.673C169.847 664.534 151.018 642.749 147.153 636.106Z"/><path fill="#0A0A0B" fill-opacity="0.96862745" d="M309.019 307.602L309.499 306.865C308.246 305.015 307.184 304.171 307.727 301.996C321.391 318.485 330.157 332.586 352.731 340.185L352.969 340.583C346.215 342.271 325.6 325.708 320.825 320.606C317.916 317.498 311.84 309.462 309.019 307.602Z"/><path fill="#0A0A0B" fill-opacity="0.98039216" d="M418.809 195.597C420.84 193.636 419.022 192.078 419.86 189.028L420.953 189.612C421.556 196.884 422.067 204.496 423.901 211.602C427.109 224.032 432.947 236.134 439.985 246.848C440.489 247.616 440.531 247.349 440.128 247.865C431.038 237.769 424.611 220.826 421.789 207.73C421.186 204.932 420.026 197.377 418.809 195.597Z"/><path fill="#F2F2F2" fill-opacity="0.011764706" d="M527.718 222.616L545.131 183.199C545.501 182.354 546.678 180.307 547.396 179.776C547.136 182.397 545.184 186.293 544.266 188.986C539.961 201.62 534.986 212.242 528.75 224.003L527.718 222.616Z"/><path fill="#0A0A0B" fill-opacity="0.97647059" d="M302.036 266.334C313.04 283.125 322.72 293.772 340.111 304.247C338.189 304.613 330.717 299.545 328.884 298.299C316.532 289.902 309.46 280.235 301.387 268.167L302.036 266.334Z"/><path fill="#F2F2F2" fill-opacity="0.035294119" d="M575.214 329.305C579.209 330.886 599.178 357.445 600.109 360.978C594.51 358.295 578.83 335.158 575.214 329.305Z"/><path fill="#0A0A0B" fill-opacity="0.96862745" d="M360.077 806.191C371.427 817.439 387.955 826.205 403.54 829.381C401.644 829.839 401.73 829.841 400.107 830.968C397.395 829.546 390.064 827.047 386.785 825.677C379.554 822.654 363.032 813.577 359.47 806.488L360.077 806.191Z"/><path fill="#0A0A0B" d="M599.373 437.951C607.663 432.572 618.924 428.872 628.607 426.901C631.441 426.325 634.913 426.293 637.224 424.618C639.838 426.82 642.377 424.921 646.15 426.512L645.731 427.474C629.512 427.402 614.353 430.606 600.104 438.631L599.373 437.951Z"/><path fill="#302F30" d="M603.336 627.019C609.471 627.169 615.609 627.053 621.734 626.67L623.587 627.333C621.464 628.32 618.899 629.063 617.834 630.821C620.746 630.632 625.688 629.388 627.799 630.939L627.362 631.696C625.286 632.243 625.415 632.548 623.619 632.09C620.549 631.329 611.994 632.032 608.334 632.17L607.474 631.689C609.024 631.043 611.595 631.311 613.369 631.353L613.192 630.991L611.064 630.445L610.945 629.826C609.096 627.463 605.127 628.961 602.739 627.791L603.336 627.019Z"/><path fill="#0A0A0B" d="M833.581 232.737C836.053 241.232 843.536 252.781 848.783 259.856C847.616 260.182 847.793 260.061 846.756 260.634L846.824 262.302C840.946 255.867 834.96 241.834 832.499 233.538L833.581 232.737Z"/><path fill="#0A0A0B" d="M338.871 259.642C339.139 255.98 342.654 243.237 343.571 237.87C344.855 230.362 344.792 221.751 345.943 215.415L346.261 215.533C346.983 223.916 344.862 254.387 339.085 260.034L338.871 259.642Z"/><path fill="#F2F2F2" d="M525.403 470.467C517.338 465.49 505.519 454.841 497.79 448.622C497.156 448.112 496.355 446.006 496.041 445.157L496.319 444.626C499.443 446.448 505.625 452.19 508.421 454.731C514.341 460.11 519.747 465.058 526.048 470.013L525.403 470.467Z"/><path fill="#0A0A0B" d="M231.439 427.438L233.243 429.255C230.67 441.154 225.939 459.364 220.529 470.026L219.797 469.305C224.088 460.57 229.763 437.187 231.439 427.438Z"/><path fill="#0A0A0B" fill-opacity="0.97254902" d="M507.875 608.663C515.854 605.875 555.333 594.726 561.625 595.505C557.233 597.218 549.381 598.287 544.487 599.646C534.233 602.495 519.458 605.934 509.799 609.857L507.875 608.663Z"/><path fill="#302F30" d="M774.098 167.905L774.05 168.914C772.329 170.257 769.234 172.172 768.55 173.967L768.728 174.511C773.749 177.003 773.608 172.714 778.315 171.014L778.541 171.76C774.032 175.199 768.989 178.453 764.709 182.028C764.03 180.112 764.849 178.42 762.467 177.821C760.881 179.481 759.389 181.129 756.985 180.968C758.581 179.042 771.483 169.671 774.098 167.905Z"/><path fill="#0A0A0B" fill-opacity="0.98039216" d="M665.675 84.7393C666.987 83.5782 667.576 82.259 669.213 80.8767L670.26 81.0139C660.679 97.6601 657.458 108.109 665.171 126.121C656.122 112.674 659.239 98.6976 665.675 84.7393Z"/><path fill="#0A0A0B" fill-opacity="0.97647059" d="M432.111 150.986C433.728 152.729 434.101 162.633 435.125 166.119C438.457 177.468 441.215 184.456 447.307 194.676L446.431 195.046C438.229 183.882 432.379 165.79 431.877 151.96L432.111 150.986Z"/><path fill="#F2F2F2" d="M482.651 495.21L482.819 495.474L481.485 496.753L481.866 497.212C483.917 497.252 484.906 496.899 486.348 497.831C488.513 497.884 490.527 497.67 492.353 498.681C492.753 499.407 492.886 499.505 493.096 500.291L493.857 501.902C489.084 501.172 482.404 499.502 477.912 499.38C475.106 499.875 474.509 499.82 472.25 498.117C473.702 497.875 478.273 497.136 478.899 495.99L477.102 495.781C477.014 495.809 482.346 495.245 482.651 495.21Z"/><path fill="#302F30" d="M482.651 495.21L482.819 495.474L481.485 496.753L481.866 497.212C483.917 497.252 484.906 496.899 486.348 497.831C483.867 497.937 479.944 497.881 477.747 498.68C477.852 499.355 477.768 499.196 477.912 499.38C475.106 499.875 474.509 499.82 472.25 498.117C473.702 497.875 478.273 497.136 478.899 495.99L477.102 495.781C477.014 495.809 482.346 495.245 482.651 495.21Z"/><defs><linearGradient id="gradient_6" gradientUnits="userSpaceOnUse" x1="274.99673" y1="391.99762" x2="277.20462" y2="392.36829"><stop offset="0" stop-color="white" stop-opacity="0"/><stop offset="1" stop-color="white" stop-opacity="0.078431375"/></linearGradient></defs><path fill="url(#gradient_6)" d="M274.318 408.462C273.758 401.528 274.188 384.958 278.255 379.377L278.725 379.618C279.144 383.765 277.371 390.57 276.684 395.022C276.035 399.469 275.547 403.939 275.222 408.422L274.318 408.462Z"/><path fill="#0A0A0B" fill-opacity="0.96862745" d="M830.986 93.9028L833.575 94.6617C824.015 103.582 817.97 110.914 813.428 123.449C812.176 126.904 811.683 130.473 810.338 133.885L810.018 133.503C812.776 116.267 819.829 106.871 830.986 93.9028Z"/><path fill="#F2F2F2" d="M448.388 495.528C451.451 495.041 462.54 492.893 464.54 494.226C467.797 496.364 473.367 496.435 477.102 495.781L478.899 495.99C478.273 497.136 473.702 497.875 472.25 498.117C466.782 496.705 455.519 497.021 448.388 495.528Z"/><defs><linearGradient id="gradient_7" gradientUnits="userSpaceOnUse" x1="701.73193" y1="117.07603" x2="696.78442" y2="111.95811"><stop offset="0" stop-color="#393638"/><stop offset="1" stop-color="#0E100E"/></linearGradient></defs><path fill="url(#gradient_7)" d="M708.42 108.518C709.128 109.793 709.269 109.807 709.616 111.167C704.035 115.836 697.556 118.179 690.579 120.248L689.108 118.591C696.434 115.793 702.436 113.708 708.42 108.518Z"/><path fill="#0A0A0B" fill-opacity="0.97254902" d="M189.434 603.041L190.824 602.847C191.077 616.274 190.83 635.829 185.057 648.135L184.558 648.134C188.92 633.872 190.28 617.967 189.434 603.041Z"/><path fill="#BABBBD" fill-opacity="0.98823529" d="M713.854 256.012C716.229 257.614 727.636 283.454 729.884 287.49C730.762 289.066 736.976 299.878 737.455 301.597C733.638 301.255 716.552 261.543 713.854 256.012Z"/><path fill="#302F30" d="M318.783 172.614C318.876 170.764 318.756 170.645 319.698 168.997L320.794 168.541C323.086 169.602 324.219 171.548 324.202 174.115C323.331 177.612 323.661 180.002 323.957 183.576L322.857 183.164C322.779 182.097 322.757 181.338 322.762 180.268C321.925 178.676 321.856 178.074 320.54 176.989C319.469 178.767 320.965 181.552 319.605 184.59C319.416 180.433 319.224 176.746 318.783 172.614Z"/><defs><linearGradient id="gradient_8" gradientUnits="userSpaceOnUse" x1="450.44623" y1="727.15173" x2="449.51587" y2="724.75037"><stop offset="0" stop-color="white" stop-opacity="0"/><stop offset="1" stop-color="white" stop-opacity="0.062745102"/></linearGradient></defs><path fill="url(#gradient_8)" d="M439.362 726.413C443.279 725.99 453.823 723.791 456.792 724.726C455.797 727.087 445.09 729.071 442.4 729.863C442.563 728.392 442.82 727.934 442.342 726.662L439.362 726.413Z"/><path fill="#F2F2F2" d="M296.816 817.753C303.396 822.409 308.808 826.019 315.752 830.225C311.839 829.173 297.723 823.013 295.389 820.317L296.816 817.753Z"/><path fill="#0A0A0B" fill-opacity="0.98039216" d="M853.237 120.526L854.101 120.262C857.556 119.187 877 110.963 878.412 111.21C873.842 114.157 857.407 121.201 851.501 123.873C851.868 122.419 852.422 121.765 853.237 120.526Z"/><path fill="#F2F2F2" d="M449.931 499.256C453.273 499.658 469.199 501.36 471.321 502.698C472.822 503.598 474.063 504.121 474.991 505.573C468.536 504.635 455.609 501.709 449.931 499.256Z"/><path fill="#0A0A0B" fill-opacity="0.98039216" d="M205.127 643.492L206.609 644.243L205.661 649.072C203.424 655.157 199.391 665.73 195.77 671.126C195.38 670.058 197.024 667.254 197.656 665.879C201.185 658.198 203.295 651.71 205.127 643.492Z"/><path fill="#0A0A0B" fill-opacity="0.97254902" d="M927.931 249.976C918.6 246.729 904.951 248.109 895.327 249.034L895.17 248.674C901.954 246.715 921.726 245.526 928.017 248.956L927.931 249.976Z"/><path fill="#0A0A0B" fill-opacity="0.97647059" d="M844.423 218.51C849.525 218.418 875.238 217.818 878.699 220.413C867.488 219.623 856.657 218.934 845.389 219.861C845.222 218.849 845.413 219.342 844.423 218.51Z"/><path fill="#F2F2F2" d="M471.251 261.773C474.217 254.83 482.303 247.545 485.916 237.41C485.981 242.338 475.436 258.509 472.145 262.813L471.251 261.773Z"/><path fill="#0A0A0B" fill-opacity="0.94901961" d="M178.904 443.296C184.316 453.489 186.54 457.247 194.559 465.923L193.383 466.09C186.169 459.093 183.16 452.768 177.715 444.678L178.904 443.296Z"/><path fill="#F2F2F2" d="M615.883 143.787L615.248 143.184C615.93 139.364 620.179 131.988 622.272 128.383C621.559 130.948 618.578 143.191 617.628 144.764L616.674 144.825L615.883 143.787Z"/><path fill="#0A0A0B" fill-opacity="0.96470588" d="M396.979 805.955L397.243 805.37L398.849 804.765C403.493 808.37 419.993 810.509 425.994 810.639C421.522 812.755 401.643 808.297 396.979 805.955Z"/><path fill="#F2F2F2" d="M816.694 330.401C818.151 332.362 822.666 339.397 823.316 341.545L822.92 341.514C820.851 339.813 814.633 334.762 814.942 332.267C815.919 331.547 815.954 331.383 816.694 330.401Z"/><path fill="#0A0A0B" fill-opacity="0.96470588" d="M477.327 138.117C474.944 148.333 473.182 153.12 468.73 162.402L468.733 162.406C468.628 161.433 475.451 141.557 476.269 136.979C476.642 137.425 476.875 137.792 477.327 138.117Z"/><path fill="#F2F2F2" d="M432.524 626.761C437.933 630.296 442.206 634.972 448.719 639.038L447.898 639.58C442.742 636.526 435.594 631.552 431.338 627.581L432.524 626.761Z"/><path fill="#F2F2F2" d="M800.283 334.763L800.885 334.639C805.823 338.181 809.432 340.509 814.936 343.258C811.903 343.808 800.743 337.304 798.348 335.071L800.283 334.763Z"/><path fill="#F2F2F2" d="M260.241 535.089C260.405 539.589 259.008 543.182 258.05 547.554C257.208 549.998 256.393 553.619 254.464 555.018C253.969 553.6 259.475 538.205 260.241 535.089Z"/><path fill="#0A0A0B" d="M690.579 120.248C686.502 121.486 683.043 122.536 678.892 123.444L678.229 122.782L677.984 122.885L678.18 123.567L676.831 123.651L677.193 123.103L677.437 123.514L677.759 122.791L678.04 123.402L678.614 123.278L678.76 122.321C681.822 120.933 685.85 119.692 689.108 118.591L690.579 120.248Z"/><path fill="#BABBBD" fill-opacity="0.98431373" d="M550.562 170.978C551.327 167.524 553.78 162.505 555.124 159.014C556.599 155.184 557.567 151.85 558.651 147.882C558.474 152.594 553.574 167.737 551.129 171.767L550.562 170.978Z"/><path fill="#898A8C" d="M527.718 222.616L528.75 224.003C528.005 226.642 522.058 236.277 520.14 238.764C521.433 235.8 526.151 224.732 527.718 222.616Z"/><path fill="#585958" d="M737.617 219.286C741.235 219.058 744.117 218.977 747.722 219.403C745.547 220.233 738.978 220.536 736.376 220.661C734.585 220.789 730.444 221.265 729.038 220.325L728.096 220.58L728.556 220.732C730.684 219.592 734.979 219.534 737.617 219.286Z"/><path fill="#F2F2F2" fill-opacity="0.97647059" d="M274.318 408.462L275.222 408.422C275.91 411.317 276.232 422.738 276.25 426.02C275.057 421.511 273.306 413.014 274.318 408.462Z"/><path fill="#302F30" fill-opacity="0.98039216" d="M825.153 139.065C829.466 138.858 835.613 137.486 840.563 137.053L840.777 139.021C838.046 139.164 826.364 140.126 824.817 139.422L825.153 139.065Z"/><path fill="#585958" fill-opacity="0.98823529" d="M471.887 570.119C473.863 568.982 486.588 568.351 488.23 569.606C483.137 570.161 477.93 570.811 472.822 571.036L471.887 570.119Z"/><path fill="#BABBBD" d="M737.029 302.196C739.455 302.751 748.824 316.396 750.517 318.99C745.909 315.014 740.29 307.337 737.029 302.196Z"/><path fill="#585958" d="M385.683 301.865C386.493 306.804 385.687 312.034 384.598 316.864L383.788 317.136L383.114 317.023C383.939 312.409 384.745 306.128 385.683 301.865Z"/><path fill="#585958" d="M159.394 712.312C158.316 711.253 150.496 700.302 150.371 698.963C152.171 700.512 158.988 709.198 160.228 711.291L159.394 712.312Z"/><path fill="#585958" fill-opacity="0.81176472" d="M194.559 465.923C198.637 470.454 203.238 474.655 207.157 479.242C201.868 475.491 197.795 470.804 193.383 466.09L194.559 465.923Z"/><path fill="#F2F2F2" d="M819.448 236.922L820.585 236.642C822.505 240.1 824.731 245.269 826.363 248.972C823.764 245.312 820.858 241.401 818.59 237.566L819.448 236.922Z"/><path fill="#F2F2F2" fill-opacity="0.0078431377" d="M468.765 715.639C470.515 716.124 471.929 716.564 472.796 718.148L471.858 719.005L469.452 719.781C467.721 719.428 468.35 719.87 467.388 718.59C467.606 716.748 467.534 717.322 468.765 715.639Z"/><path fill="#0A0A0B" fill-opacity="0.98039216" d="M419.279 778.048L421.066 778.42C418.724 780.357 413.173 785.426 411.037 786.658C413.405 783.207 416.095 780.698 419.279 778.048Z"/><path fill="#0A0A0B" fill-opacity="0.94509804" d="M465.448 596.883C469.936 594.605 474.314 592.261 479.034 590.504L480.144 591.206C475.374 593.066 470.11 595.868 465.942 597.437L465.448 596.883Z"/><path fill="#F2F2F2" fill-opacity="0.98431373" d="M547.959 521.965C550.513 523.45 552.989 526.002 555.2 528.055L554.487 528.464C551.828 526.762 549.325 525.176 546.77 523.315L547.959 521.965Z"/><path fill="#F2F2F2" fill-opacity="0.078431375" d="M719.258 256.519C721.442 257.204 727.568 260.965 728.52 263.058L727.27 263.046C724.539 261.501 720.921 259.199 719.258 256.519Z"/><path fill="#F2F2F2" d="M416.804 260.837C415.767 256.354 415.073 251.91 414.319 247.376L418.48 259.429L416.804 260.837Z"/><path fill="#F2F2F2" fill-opacity="0.98431373" d="M186.274 514.682C187.693 516.399 192.006 521.871 192.649 523.705L192.416 524.398L191.658 524.568C189.73 522.334 187.055 517.464 186.274 514.682Z"/><path fill="#F2F2F2" d="M206.609 644.243L207.24 641.969L207.795 642.083C208.289 643.892 208.704 645.912 208.634 647.798L205.661 649.072L206.609 644.243Z"/><path fill="#272526" fill-opacity="0.9254902" d="M806.242 162.815C803.187 162.655 800.365 162.697 797.462 161.791C799.677 161.187 808.048 161.663 810.868 161.798C808.385 163.114 806.89 161.377 806.242 162.815Z"/><path fill="#F2F2F2" fill-opacity="0.050980393" d="M642.729 191.19C646.879 189.908 648.69 189.589 653.099 189.211C650.534 190.354 647.999 191.51 645.378 192.523C644.231 192.247 643.764 191.819 642.729 191.19Z"/><path fill="#898A8C" d="M448.719 639.038C451.534 640.556 454.37 642.034 457.226 643.473L456.883 644.896L457.587 643.71L457.302 644.993L457.996 644.023L457.825 645.076L458.343 644.35L458.491 644.924C456.145 644.664 449.849 641.018 447.898 639.58L448.719 639.038Z"/><path fill="#BABBBD" fill-opacity="0.98823529" d="M259.109 494.106C259.633 490.173 259.38 486.457 260.043 482.117C260.344 484.314 261.449 490.526 260.733 492.268L259.109 494.106Z"/><path fill="#F2F2F2" fill-opacity="0.070588239" d="M544.24 519.233L547.959 521.965L546.77 523.315C544.673 521.817 543.81 521.334 541.491 520.192L544.24 519.233Z"/><path fill="#F2F2F2" fill-opacity="0.23137255" d="M519.139 252.895C520.529 250.714 521.102 249.693 522.98 247.867L525.491 248.859C524.095 250.02 520.815 251.88 519.139 252.895Z"/><path fill="#0A0A0B" fill-opacity="0.96470588" d="M634.309 360.257C633.038 358.089 632.257 356.38 631.207 354.12L631.471 353.415L630.713 352.513C632.567 354.328 634.147 357.489 635.489 359.819L634.309 360.257Z"/><path fill="#302F30" fill-opacity="0.9137255" d="M662.019 140.68C664.365 140.466 666.715 140.289 669.067 140.149L669.336 141.222C666.253 141.568 664.858 141.537 661.786 141.443L662.019 140.68Z"/><path fill="#585958" d="M555.2 528.055C556.842 529.352 559.607 531.25 560.559 532.953C559.377 533.271 555.397 529.397 554.487 528.464L555.2 528.055Z"/><path fill="#0A0A0B" fill-opacity="0.93333334" d="M335.664 815.617C334.462 814.159 333.435 813.186 332.878 811.392C334.426 811.999 335.411 813.488 336.603 814.837L335.664 815.617Z"/><path fill="#F2F2F2" fill-opacity="0.035294119" d="M253.067 555.842L254.464 555.018C254.427 556.996 254.187 558.386 252.517 559.612C252.104 557.905 252.478 557.823 253.067 555.842Z"/><path fill="#898A8C" fill-opacity="0.58431375" d="M549.432 452.127C547.971 450.625 546.671 449.546 545.835 447.642C547.196 448.01 548.574 449.727 549.642 450.826L549.432 452.127Z"/><path fill="#585958" d="M526.048 470.013C527.484 470.75 528.623 471.101 529.409 472.461C527.913 472.89 526.358 471.548 525.403 470.467L526.048 470.013Z"/><path fill="#F2F2F2" fill-opacity="0.14509805" d="M550.562 170.978L551.129 171.767C550.603 173.296 550.324 174.497 549.109 175.429C548.966 173.695 549.77 172.578 550.562 170.978Z"/></svg>